<svg width="130" height="250" viewBox="0 0 130 250" fill="none" xmlns="http://www.w3.org/2000/svg">
<mask id="path-1-outside-1_62_406" maskUnits="userSpaceOnUse" x="11" y="26" width="103" height="220" fill="black">
<rect fill="white" x="11" y="26" width="103" height="220"/>
<path d="M73.9355 77.0645L21.3477 112.953V83.3633L86.8262 36.7812H103.086V236H73.9355V77.0645Z"/>
</mask>
<path d="M73.9355 77.0645H83.9355V58.1332L68.2986 68.8046L73.9355 77.0645ZM21.3477 112.953H11.3477V131.884L26.9846 121.213L21.3477 112.953ZM21.3477 83.3633L15.5508 75.2149L11.3477 78.205V83.3633H21.3477ZM86.8262 36.7812V26.7812H83.632L81.0293 28.6328L86.8262 36.7812ZM103.086 36.7812H113.086V26.7812H103.086V36.7812ZM103.086 236V246H113.086V236H103.086ZM73.9355 236H63.9355V246H73.9355V236ZM68.2986 68.8046L15.7107 104.693L26.9846 121.213L79.5725 85.3243L68.2986 68.8046ZM31.3477 112.953V83.3633H11.3477V112.953H31.3477ZM27.1445 91.5117L92.623 44.9297L81.0293 28.6328L15.5508 75.2149L27.1445 91.5117ZM86.8262 46.7812H103.086V26.7812H86.8262V46.7812ZM93.0859 36.7812V236H113.086V36.7812H93.0859ZM103.086 226H73.9355V246H103.086V226ZM83.9355 236V77.0645H63.9355V236H83.9355Z" fill="#B4CD00" fill-opacity="0.6" mask="url(#path-1-outside-1_62_406)"/>
</svg>
