<svg width="56" height="133" viewBox="0 0 56 133" fill="none" xmlns="http://www.w3.org/2000/svg">
<mask id="path-1-outside-1_62_406" maskUnits="userSpaceOnUse" x="-10" y="-10" width="76" height="153" fill="black">
<rect fill="white" x="-10" y="-10" width="76" height="153"/>
<path d="M35.957 27.043L0.898438 50.9688V31.2422L44.5508 0.1875H55.3906V133H35.957V27.043Z"/>
</mask>
<path d="M35.957 27.043H45.957V8.11168L30.3201 18.7831L35.957 27.043ZM0.898438 50.9688H-9.10156V69.9L6.53537 59.2286L0.898438 50.9688ZM0.898438 31.2422L-4.89841 23.0938L-9.10156 26.0839V31.2422H0.898438ZM44.5508 0.1875V-9.8125H41.3566L38.7539 -7.96091L44.5508 0.1875ZM55.3906 0.1875H65.3906V-9.8125H55.3906V0.1875ZM55.3906 133V143H65.3906V133H55.3906ZM35.957 133H25.957V143H35.957V133ZM30.3201 18.7831L-4.7385 42.7089L6.53537 59.2286L41.594 35.3028L30.3201 18.7831ZM10.8984 50.9688V31.2422H-9.10156V50.9688H10.8984ZM6.69529 39.3906L50.3476 8.33591L38.7539 -7.96091L-4.89841 23.0938L6.69529 39.3906ZM44.5508 10.1875H55.3906V-9.8125H44.5508V10.1875ZM45.3906 0.1875V133H65.3906V0.1875H45.3906ZM55.3906 123H35.957V143H55.3906V123ZM45.957 133V27.043H25.957V133H45.957Z" fill="#B4CD00" fill-opacity="0.6" mask="url(#path-1-outside-1_62_406)"/>
</svg>
