<svg width="194" height="135" viewBox="0 0 194 135" fill="none" xmlns="http://www.w3.org/2000/svg">
<mask id="path-1-outside-1_133_107" maskUnits="userSpaceOnUse" x="-10" y="-10" width="214" height="155" fill="black">
<rect fill="white" x="-10" y="-10" width="214" height="155"/>
<path d="M35.7578 27.043L0.699219 50.9688V31.2422L44.3516 0.1875H55.1914V133H35.7578V27.043ZM83.5117 67.5703C83.5117 46.2161 88.5247 29.582 98.5508 17.668C108.382 6.01432 121.793 0.1875 138.785 0.1875C155.517 0.1875 168.668 6.01432 178.238 17.668C188.134 29.6471 193.082 46.2812 193.082 67.5703C193.082 88.8594 188.134 105.428 178.238 117.277C168.668 128.801 155.517 134.562 138.785 134.562C121.793 134.562 108.382 128.801 98.5508 117.277C88.5247 105.493 83.5117 88.9245 83.5117 67.5703ZM138.59 119.719C145.296 119.719 150.829 118.352 155.191 115.617C159.553 112.883 163.004 109.172 165.543 104.484C170.23 95.8906 172.574 83.6185 172.574 67.668C172.574 42.668 166.78 26.4896 155.191 19.1328C150.829 16.3984 145.361 15.0312 138.785 15.0312C126.48 15.0312 117.431 20.1745 111.637 30.4609C106.559 39.4453 104.02 51.7826 104.02 67.4727C104.02 102.303 115.543 119.719 138.59 119.719Z"/>
</mask>
<path d="M35.7578 27.043H45.7578V8.11168L30.1209 18.7831L35.7578 27.043ZM0.699219 50.9688H-9.30078V69.9L6.33616 59.2286L0.699219 50.9688ZM0.699219 31.2422L-5.09763 23.0938L-9.30078 26.0839V31.2422H0.699219ZM44.3516 0.1875V-9.8125H41.1574L38.5547 -7.96091L44.3516 0.1875ZM55.1914 0.1875H65.1914V-9.8125H55.1914V0.1875ZM55.1914 133V143H65.1914V133H55.1914ZM35.7578 133H25.7578V143H35.7578V133ZM30.1209 18.7831L-4.93772 42.7089L6.33616 59.2286L41.3948 35.3028L30.1209 18.7831ZM10.6992 50.9688V31.2422H-9.30078V50.9688H10.6992ZM6.49607 39.3906L50.1484 8.33591L38.5547 -7.96091L-5.09763 23.0938L6.49607 39.3906ZM44.3516 10.1875H55.1914V-9.8125H44.3516V10.1875ZM45.1914 0.1875V133H65.1914V0.1875H45.1914ZM55.1914 123H35.7578V143H55.1914V123ZM45.7578 133V27.043H25.7578V133H45.7578ZM98.5508 17.668L90.9072 11.22L90.8995 11.2292L98.5508 17.668ZM178.238 17.668L170.51 24.0144L170.519 24.0256L170.529 24.0368L178.238 17.668ZM178.238 117.277L170.563 110.867L170.554 110.878L170.545 110.888L178.238 117.277ZM98.5508 117.277L90.9345 123.757L90.9431 123.768L98.5508 117.277ZM165.543 104.484L156.764 99.6958L156.757 99.7087L156.75 99.7215L165.543 104.484ZM155.191 19.1328L160.551 10.6903L160.527 10.6751L160.503 10.6599L155.191 19.1328ZM111.637 30.4609L120.342 35.3815L120.346 35.3752L120.35 35.3688L111.637 30.4609ZM93.5117 67.5703C93.5117 47.6993 98.1734 33.6473 106.202 24.1068L90.8995 11.2292C78.8761 25.5167 73.5117 44.733 73.5117 67.5703H93.5117ZM106.194 24.1159C113.893 14.9897 124.36 10.1875 138.785 10.1875V-9.8125C119.226 -9.8125 102.87 -2.96107 90.9072 11.22L106.194 24.1159ZM138.785 10.1875C152.895 10.1875 163.063 14.9462 170.51 24.0144L185.966 11.3215C174.273 -2.91759 158.138 -9.8125 138.785 -9.8125V10.1875ZM170.529 24.0368C178.477 33.659 183.082 47.7494 183.082 67.5703H203.082C203.082 44.8131 197.791 25.6353 185.948 11.2992L170.529 24.0368ZM183.082 67.5703C183.082 87.3995 178.474 101.395 170.563 110.867L185.914 123.687C197.794 109.462 203.082 90.3192 203.082 67.5703H183.082ZM170.545 110.888C163.112 119.838 152.936 124.562 138.785 124.562V144.562C158.098 144.562 174.224 137.763 185.931 123.666L170.545 110.888ZM138.785 124.562C124.32 124.562 113.844 119.796 106.158 110.787L90.9431 123.768C102.919 137.805 119.266 144.562 138.785 144.562V124.562ZM106.167 110.797C98.1767 101.406 93.5117 87.4497 93.5117 67.5703H73.5117C73.5117 90.3992 78.8728 109.581 90.9345 123.757L106.167 110.797ZM138.59 129.719C146.616 129.719 154.134 128.082 160.503 124.09L149.88 107.144C147.525 108.621 143.975 109.719 138.59 109.719V129.719ZM160.503 124.09C166.379 120.407 171.006 115.395 174.336 109.247L156.75 99.7215C155.002 102.949 152.728 105.359 149.88 107.144L160.503 124.09ZM174.322 109.273C180.164 98.5623 182.574 84.3531 182.574 67.668H162.574C162.574 82.8839 160.297 93.219 156.764 99.6958L174.322 109.273ZM182.574 67.668C182.574 41.9967 176.765 20.9837 160.551 10.6903L149.832 27.5753C156.795 31.9955 162.574 43.3393 162.574 67.668H182.574ZM160.503 10.6599C154.163 6.68559 146.725 5.03125 138.785 5.03125V25.0312C143.997 25.0312 147.496 26.1113 149.88 27.6057L160.503 10.6599ZM138.785 5.03125C123.058 5.03125 110.581 11.9599 102.924 25.5531L120.35 35.3688C124.281 28.3891 129.902 25.0312 138.785 25.0312V5.03125ZM102.931 25.5404C96.6745 36.6096 94.0195 50.883 94.0195 67.4727H114.02C114.02 52.6821 116.443 42.281 120.342 35.3815L102.931 25.5404ZM94.0195 67.4727C94.0195 85.6738 96.9728 101.068 104.322 112.175C112.152 124.008 124.121 129.719 138.59 129.719V109.719C130.012 109.719 124.696 106.722 121.002 101.139C116.828 94.8312 114.02 84.1022 114.02 67.4727H94.0195Z" fill="#B4CD00" fill-opacity="0.6" mask="url(#path-1-outside-1_133_107)"/>
</svg>
