<svg width="260" height="220" viewBox="0 0 260 220" fill="none" xmlns="http://www.w3.org/2000/svg">
<mask id="path-1-outside-1_133_107" maskUnits="userSpaceOnUse" x="14" y="35" width="233" height="169" fill="black">
<rect fill="white" x="14" y="35" width="233" height="169"/>
<path d="M63.1836 75.4473L24.6191 101.766V80.0664L72.6367 45.9062H84.5605V192H63.1836V75.4473ZM115.713 120.027C115.713 96.5378 121.227 78.2402 132.256 65.1348C143.07 52.3158 157.822 45.9062 176.514 45.9062C194.919 45.9062 209.385 52.3158 219.912 65.1348C230.798 78.3118 236.24 96.6094 236.24 120.027C236.24 143.445 230.798 161.671 219.912 174.705C209.385 187.381 194.919 193.719 176.514 193.719C157.822 193.719 143.07 187.381 132.256 174.705C121.227 161.743 115.713 143.517 115.713 120.027ZM176.299 177.391C183.675 177.391 189.762 175.887 194.561 172.879C199.359 169.871 203.154 165.789 205.947 160.633C211.104 151.18 213.682 137.68 213.682 120.135C213.682 92.6348 207.308 74.8385 194.561 66.7461C189.762 63.7383 183.747 62.2344 176.514 62.2344C162.979 62.2344 153.024 67.8919 146.65 79.207C141.064 89.0898 138.271 102.661 138.271 119.92C138.271 158.234 150.947 177.391 176.299 177.391Z"/>
</mask>
<path d="M63.1836 75.4473H73.1836V56.516L57.5467 67.1874L63.1836 75.4473ZM24.6191 101.766H14.6191V120.697L30.2561 110.025L24.6191 101.766ZM24.6191 80.0664L18.8223 71.918L14.6191 74.9082V80.0664H24.6191ZM72.6367 45.9062V35.9062H69.4426L66.8399 37.7578L72.6367 45.9062ZM84.5605 45.9062H94.5605V35.9062H84.5605V45.9062ZM84.5605 192V202H94.5605V192H84.5605ZM63.1836 192H53.1836V202H63.1836V192ZM57.5467 67.1874L18.9822 93.5058L30.2561 110.025L68.8205 83.7071L57.5467 67.1874ZM34.6191 101.766V80.0664H14.6191V101.766H34.6191ZM30.416 88.2148L78.4336 54.0547L66.8399 37.7578L18.8223 71.918L30.416 88.2148ZM72.6367 55.9062H84.5605V35.9062H72.6367V55.9062ZM74.5605 45.9062V192H94.5605V45.9062H74.5605ZM84.5605 182H63.1836V202H84.5605V182ZM73.1836 192V75.4473H53.1836V192H73.1836ZM132.256 65.1348L124.612 58.6868L124.605 58.696L132.256 65.1348ZM219.912 65.1348L212.184 71.4812L212.193 71.4924L212.202 71.5036L219.912 65.1348ZM219.912 174.705L212.237 168.295L212.228 168.305L212.219 168.316L219.912 174.705ZM132.256 174.705L124.64 181.185L124.648 181.195L132.256 174.705ZM205.947 160.633L197.168 155.844L197.161 155.857L197.154 155.87L205.947 160.633ZM194.561 66.7461L199.92 58.3036L199.896 58.2884L199.872 58.2732L194.561 66.7461ZM146.65 79.207L155.356 84.1276L155.36 84.1212L155.363 84.1149L146.65 79.207ZM125.713 120.027C125.713 98.0209 130.876 82.3055 139.907 71.5735L124.605 58.696C111.579 74.1749 105.713 95.0546 105.713 120.027H125.713ZM139.899 71.5827C148.581 61.2911 160.389 55.9062 176.514 55.9062V35.9062C155.255 35.9062 137.558 43.3404 124.612 58.6868L139.899 71.5827ZM176.514 55.9062C192.297 55.9062 203.78 61.2477 212.184 71.4812L227.64 58.7883C214.99 43.3838 197.54 35.9062 176.514 35.9062V55.9062ZM212.202 71.5036C221.141 82.3237 226.24 98.0775 226.24 120.027H246.24C246.24 95.1413 240.454 74.3 227.622 58.766L212.202 71.5036ZM226.24 120.027C226.24 141.985 221.138 157.637 212.237 168.295L227.587 181.115C240.457 165.705 246.24 144.905 246.24 120.027H226.24ZM212.219 168.316C203.829 178.419 192.337 183.719 176.514 183.719V203.719C197.5 203.719 214.941 196.343 227.605 181.094L212.219 168.316ZM176.514 183.719C160.35 183.719 148.532 178.376 139.864 168.215L124.648 181.195C137.607 196.385 155.295 203.719 176.514 203.719V183.719ZM139.872 168.225C130.879 157.655 125.713 142.042 125.713 120.027H105.713C105.713 144.992 111.575 165.83 124.64 181.185L139.872 168.225ZM176.299 187.391C184.996 187.391 193.067 185.617 199.872 181.352L189.249 164.406C186.457 166.156 182.355 167.391 176.299 167.391V187.391ZM199.872 181.352C206.184 177.395 211.156 172.012 214.74 165.396L197.154 155.87C195.152 159.566 192.533 162.347 189.249 164.406L199.872 181.352ZM214.726 165.421C221.037 153.851 223.682 138.415 223.682 120.135H203.682C203.682 136.946 201.17 148.508 197.168 155.844L214.726 165.421ZM223.682 120.135C223.682 91.9635 217.293 69.3326 199.92 58.3036L189.201 75.1886C197.323 80.3445 203.682 93.3061 203.682 120.135H223.682ZM199.872 58.2732C193.096 54.0254 185.111 52.2344 176.514 52.2344V72.2344C182.383 72.2344 186.429 73.4511 189.249 75.219L199.872 58.2732ZM176.514 52.2344C159.556 52.2344 146.174 59.6773 137.938 74.2992L155.363 84.1149C159.874 76.1065 166.401 72.2344 176.514 72.2344V52.2344ZM137.945 74.2865C131.18 86.2542 128.271 101.761 128.271 119.92H148.271C148.271 103.56 150.948 91.9255 155.356 84.1276L137.945 74.2865ZM128.271 119.92C128.271 139.863 131.513 156.563 139.439 168.541C147.844 181.244 160.678 187.391 176.299 187.391V167.391C166.568 167.391 160.388 163.959 156.118 157.505C151.368 150.326 148.271 138.291 148.271 119.92H128.271Z" fill="#B4CD00" fill-opacity="0.6" mask="url(#path-1-outside-1_133_107)"/>
</svg>
