<svg width="91" height="133" viewBox="0 0 91 133" fill="none" xmlns="http://www.w3.org/2000/svg">
<mask id="path-1-outside-1_62_410" maskUnits="userSpaceOnUse" x="-10" y="-10" width="111" height="153" fill="black">
<rect fill="white" x="-10" y="-10" width="111" height="153"/>
<path d="M4.20312 2.92188C15.5964 1.09896 25.5573 0.1875 34.0859 0.1875C42.6797 0.1875 49.9388 0.80599 55.8633 2.04297C61.8529 3.27995 66.8984 4.9401 71 7.02344C75.1667 9.04167 78.5195 11.3529 81.0586 13.957C83.5977 16.5612 85.5508 19.263 86.918 22.0625C89.1966 26.6198 90.3359 31.3724 90.3359 36.3203C90.3359 41.2682 89.5872 45.793 88.0898 49.8945C86.6576 53.931 84.5742 58.0326 81.8398 62.1992C79.1055 66.3659 75.7526 70.6953 71.7812 75.1875L58.5 89.8359L33.1094 115.812H90.2383V133H0.882812V124.016L42.1914 82.1211L55.375 68.1562C62.7318 60.0833 67.3542 53.2474 69.2422 47.6484C70.2839 44.6536 70.8047 41.8216 70.8047 39.1523C70.8047 36.418 70.4141 33.8464 69.6328 31.4375C68.8516 29.0286 67.1914 26.8151 64.6523 24.7969C58.7279 19.9792 49.3529 17.5703 36.5273 17.5703C23.7018 17.5703 12.9271 18.9375 4.20312 21.6719V2.92188Z"/>
</mask>
<path d="M4.20312 2.92188L2.62322 -6.95253L-5.79688 -5.60532V2.92188H4.20312ZM55.8633 2.04297L53.8194 11.8319L53.8301 11.8341L53.8407 11.8363L55.8633 2.04297ZM71 7.02344L66.4713 15.9392L66.5556 15.982L66.6407 16.0233L71 7.02344ZM86.918 22.0625L77.9323 26.4509L77.9528 26.4928L77.9737 26.5346L86.918 22.0625ZM88.0898 49.8945L78.6963 46.4651L78.6807 46.5077L78.6656 46.5504L88.0898 49.8945ZM71.7812 75.1875L79.1896 81.9044L79.2317 81.8579L79.2733 81.8109L71.7812 75.1875ZM58.5 89.8359L65.6513 96.8259L65.7824 96.6918L65.9083 96.5528L58.5 89.8359ZM33.1094 115.812L25.9581 108.823L9.35139 125.812H33.1094V115.812ZM90.2383 115.812H100.238V105.812H90.2383V115.812ZM90.2383 133V143H100.238V133H90.2383ZM0.882812 133H-9.11719V143H0.882812V133ZM0.882812 124.016L-6.23787 116.995L-9.11719 119.915V124.016H0.882812ZM42.1914 82.1211L49.3121 89.1422L49.3884 89.0648L49.4629 88.9858L42.1914 82.1211ZM55.375 68.1562L62.6465 75.021L62.707 74.957L62.7663 74.8919L55.375 68.1562ZM69.2422 47.6484L59.7972 44.3632L59.7816 44.4081L59.7664 44.4531L69.2422 47.6484ZM69.6328 31.4375L60.1206 34.5225L69.6328 31.4375ZM64.6523 24.7969L58.3432 32.5554L58.3864 32.5905L58.4299 32.6251L64.6523 24.7969ZM4.20312 21.6719H-5.79688V35.2859L7.19398 31.2141L4.20312 21.6719ZM5.78303 12.7963C16.823 11.0299 26.2339 10.1875 34.0859 10.1875V-9.8125C24.8807 -9.8125 14.3697 -8.83196 2.62322 -6.95253L5.78303 12.7963ZM34.0859 10.1875C42.254 10.1875 48.7819 10.7801 53.8194 11.8319L57.9071 -7.74594C51.0957 -9.16811 43.1054 -9.8125 34.0859 -9.8125V10.1875ZM53.8407 11.8363C59.2269 12.9486 63.3736 14.3657 66.4713 15.9392L75.5287 -1.89235C70.4233 -4.48554 64.4789 -6.38875 57.8858 -7.75036L53.8407 11.8363ZM66.6407 16.0233C70.0355 17.6676 72.3559 19.3558 73.8986 20.938L88.2186 6.97603C84.6832 3.34997 80.2978 0.415726 75.3593 -1.97638L66.6407 16.0233ZM73.8986 20.938C75.8165 22.9051 77.1026 24.7519 77.9323 26.4509L95.9036 17.6741C93.999 13.7742 91.3788 10.2173 88.2186 6.97603L73.8986 20.938ZM77.9737 26.5346C79.5794 29.7461 80.3359 32.9719 80.3359 36.3203H100.336C100.336 29.7729 98.8138 23.4935 95.8622 17.5904L77.9737 26.5346ZM80.3359 36.3203C80.3359 40.2526 79.7428 43.5985 78.6963 46.4651L97.4834 53.3239C99.4316 47.9875 100.336 42.2839 100.336 36.3203H80.3359ZM78.6656 46.5504C77.5402 49.7218 75.8443 53.1089 73.4794 56.7127L90.2003 67.6858C93.3041 62.9562 95.7749 58.1402 97.5141 53.2386L78.6656 46.5504ZM73.4794 56.7127C71.0532 60.4097 68.0055 64.3604 64.2892 68.5641L79.2733 81.8109C83.4997 77.0302 87.1577 72.3221 90.2003 67.6858L73.4794 56.7127ZM64.3729 68.4706L51.0917 83.119L65.9083 96.5528L79.1896 81.9044L64.3729 68.4706ZM51.3487 82.846L25.9581 108.823L40.2606 122.802L65.6513 96.8259L51.3487 82.846ZM33.1094 125.812H90.2383V105.812H33.1094V125.812ZM80.2383 115.812V133H100.238V115.812H80.2383ZM90.2383 123H0.882812V143H90.2383V123ZM10.8828 133V124.016H-9.11719V133H10.8828ZM8.0035 131.037L49.3121 89.1422L35.0707 75.1L-6.23787 116.995L8.0035 131.037ZM49.4629 88.9858L62.6465 75.021L48.1035 61.2915L34.9199 75.2563L49.4629 88.9858ZM62.7663 74.8919C70.3976 66.5177 76.1564 58.4401 78.7179 50.8438L59.7664 44.4531C58.5519 48.0547 55.0659 53.649 47.9837 61.4206L62.7663 74.8919ZM78.6872 50.9336C80.029 47.0758 80.8047 43.1278 80.8047 39.1523H60.8047C60.8047 40.5155 60.5387 42.2315 59.7972 44.3632L78.6872 50.9336ZM80.8047 39.1523C80.8047 35.4538 80.2742 31.8341 79.145 28.3525L60.1206 34.5225C60.5539 35.8586 60.8047 37.3821 60.8047 39.1523H80.8047ZM79.145 28.3525C77.6078 23.6125 74.5237 19.869 70.8748 16.9686L58.4299 32.6251C59.8592 33.7612 60.0954 34.4448 60.1206 34.5225L79.145 28.3525ZM70.9615 17.0383C62.3935 10.071 50.2205 7.57031 36.5273 7.57031V27.5703C48.4852 27.5703 55.0622 29.8874 58.3432 32.5554L70.9615 17.0383ZM36.5273 7.57031C23.0624 7.57031 11.2067 8.99704 1.21227 12.1296L7.19398 31.2141C14.6475 28.878 24.3412 27.5703 36.5273 27.5703V7.57031ZM14.2031 21.6719V2.92188H-5.79688V21.6719H14.2031Z" fill="#B4CD00" fill-opacity="0.6" mask="url(#path-1-outside-1_62_410)"/>
</svg>
