<svg width="150" height="180" viewBox="0 0 150 180" fill="none" xmlns="http://www.w3.org/2000/svg">
<mask id="path-1-outside-1_62_410" maskUnits="userSpaceOnUse" x="19" y="21" width="111" height="153" fill="black">
<rect fill="white" x="19" y="21" width="111" height="153"/>
<path d="M33.2031 33.9219C44.5964 32.099 54.5573 31.1875 63.0859 31.1875C71.6797 31.1875 78.9388 31.806 84.8633 33.043C90.8529 34.2799 95.8984 35.9401 100 38.0234C104.167 40.0417 107.52 42.3529 110.059 44.957C112.598 47.5612 114.551 50.263 115.918 53.0625C118.197 57.6198 119.336 62.3724 119.336 67.3203C119.336 72.2682 118.587 76.793 117.09 80.8945C115.658 84.931 113.574 89.0326 110.84 93.1992C108.105 97.3659 104.753 101.695 100.781 106.188L87.5 120.836L62.1094 146.812H119.238V164H29.8828V155.016L71.1914 113.121L84.375 99.1562C91.7318 91.0833 96.3542 84.2474 98.2422 78.6484C99.2839 75.6536 99.8047 72.8216 99.8047 70.1523C99.8047 67.418 99.4141 64.8464 98.6328 62.4375C97.8516 60.0286 96.1914 57.8151 93.6523 55.7969C87.7279 50.9792 78.3529 48.5703 65.5273 48.5703C52.7018 48.5703 41.9271 49.9375 33.2031 52.6719V33.9219Z"/>
</mask>
<path d="M33.2031 33.9219L31.6232 24.0475L23.2031 25.3947V33.9219H33.2031ZM84.8633 33.043L82.8194 42.8319L82.8301 42.8341L82.8407 42.8363L84.8633 33.043ZM100 38.0234L95.4713 46.9392L95.5556 46.982L95.6407 47.0233L100 38.0234ZM115.918 53.0625L106.932 57.4509L106.953 57.4928L106.974 57.5346L115.918 53.0625ZM117.09 80.8945L107.696 77.4651L107.681 77.5077L107.666 77.5504L117.09 80.8945ZM100.781 106.188L108.19 112.904L108.232 112.858L108.273 112.811L100.781 106.188ZM87.5 120.836L94.6513 127.826L94.7824 127.692L94.9083 127.553L87.5 120.836ZM62.1094 146.812L54.9581 139.823L38.3514 156.812H62.1094V146.812ZM119.238 146.812H129.238V136.812H119.238V146.812ZM119.238 164V174H129.238V164H119.238ZM29.8828 164H19.8828V174H29.8828V164ZM29.8828 155.016L22.7621 147.995L19.8828 150.915V155.016H29.8828ZM71.1914 113.121L78.3121 120.142L78.3884 120.065L78.4629 119.986L71.1914 113.121ZM84.375 99.1562L91.6465 106.021L91.707 105.957L91.7663 105.892L84.375 99.1562ZM98.2422 78.6484L88.7972 75.3632L88.7816 75.4081L88.7664 75.4531L98.2422 78.6484ZM98.6328 62.4375L89.1206 65.5225L98.6328 62.4375ZM93.6523 55.7969L87.3432 63.5554L87.3864 63.5905L87.4299 63.6251L93.6523 55.7969ZM33.2031 52.6719H23.2031V66.2859L36.194 62.2141L33.2031 52.6719ZM34.783 43.7963C45.823 42.0299 55.2339 41.1875 63.0859 41.1875V21.1875C53.8807 21.1875 43.3697 22.168 31.6232 24.0475L34.783 43.7963ZM63.0859 41.1875C71.254 41.1875 77.7819 41.7801 82.8194 42.8319L86.9071 23.2541C80.0957 21.8319 72.1054 21.1875 63.0859 21.1875V41.1875ZM82.8407 42.8363C88.2269 43.9487 92.3736 45.3657 95.4713 46.9392L104.529 29.1076C99.4233 26.5145 93.4789 24.6112 86.8858 23.2496L82.8407 42.8363ZM95.6407 47.0233C99.0355 48.6676 101.356 50.3558 102.899 51.938L117.219 37.976C113.683 34.35 109.298 31.4157 104.359 29.0236L95.6407 47.0233ZM102.899 51.938C104.817 53.9051 106.103 55.7519 106.932 57.4509L124.904 48.6741C122.999 44.7742 120.379 41.2173 117.219 37.976L102.899 51.938ZM106.974 57.5346C108.579 60.7461 109.336 63.9719 109.336 67.3203H129.336C129.336 60.7729 127.814 54.4935 124.862 48.5904L106.974 57.5346ZM109.336 67.3203C109.336 71.2526 108.743 74.5985 107.696 77.4651L126.483 84.3239C128.432 78.9875 129.336 73.2839 129.336 67.3203H109.336ZM107.666 77.5504C106.54 80.7218 104.844 84.1089 102.479 87.7127L119.2 98.6858C122.304 93.9562 124.775 89.1402 126.514 84.2386L107.666 77.5504ZM102.479 87.7127C100.053 91.4097 97.0055 95.3604 93.2892 99.5641L108.273 112.811C112.5 108.03 116.158 103.322 119.2 98.6858L102.479 87.7127ZM93.3729 99.4706L80.0917 114.119L94.9083 127.553L108.19 112.904L93.3729 99.4706ZM80.3487 113.846L54.9581 139.823L69.2606 153.802L94.6513 127.826L80.3487 113.846ZM62.1094 156.812H119.238V136.812H62.1094V156.812ZM109.238 146.812V164H129.238V146.812H109.238ZM119.238 154H29.8828V174H119.238V154ZM39.8828 164V155.016H19.8828V164H39.8828ZM37.0035 162.037L78.3121 120.142L64.0707 106.1L22.7621 147.995L37.0035 162.037ZM78.4629 119.986L91.6465 106.021L77.1035 92.2915L63.9199 106.256L78.4629 119.986ZM91.7663 105.892C99.3976 97.5177 105.156 89.4401 107.718 81.8438L88.7664 75.4531C87.5519 79.0547 84.0659 84.649 76.9837 92.4206L91.7663 105.892ZM107.687 81.9336C109.029 78.0758 109.805 74.1278 109.805 70.1523H89.8047C89.8047 71.5155 89.5387 73.2315 88.7972 75.3632L107.687 81.9336ZM109.805 70.1523C109.805 66.4538 109.274 62.8341 108.145 59.3525L89.1206 65.5225C89.5539 66.8586 89.8047 68.3821 89.8047 70.1523H109.805ZM108.145 59.3525C106.608 54.6125 103.524 50.869 99.8748 47.9686L87.4299 63.6251C88.8592 64.7612 89.0954 65.4448 89.1206 65.5225L108.145 59.3525ZM99.9615 48.0383C91.3935 41.071 79.2205 38.5703 65.5273 38.5703V58.5703C77.4852 58.5703 84.0622 60.8874 87.3432 63.5554L99.9615 48.0383ZM65.5273 38.5703C52.0624 38.5703 40.2067 39.997 30.2123 43.1296L36.194 62.2141C43.6475 59.878 53.3412 58.5703 65.5273 58.5703V38.5703ZM43.2031 52.6719V33.9219H23.2031V52.6719H43.2031Z" fill="#B4CD00" fill-opacity="0.6" mask="url(#path-1-outside-1_62_410)"/>
</svg>
