<svg width="153" height="182" viewBox="0 0 153 182" fill="none" xmlns="http://www.w3.org/2000/svg">
<mask id="path-1-outside-1_62_413" maskUnits="userSpaceOnUse" x="20.0604" y="21.246" width="114.898" height="155.387" fill="black">
<rect fill="white" x="20.0604" y="21.246" width="114.898" height="155.387"/>
<path d="M109.7 154.405C105.098 157.994 99.1382 160.818 91.8205 162.876C84.5036 164.869 74.205 165.783 60.9248 165.618C47.7097 165.455 37.5972 164.483 30.5875 162.703L30.816 144.248C38.5322 146.818 49.4535 148.19 63.58 148.365C77.7066 148.54 87.7568 146.646 93.7308 142.683C99.7707 138.656 102.836 132.997 102.926 125.706C103.016 118.415 99.8605 113.004 93.4584 109.474C86.5388 105.677 74.7788 103.676 58.1785 103.47L48.4136 103.349L48.5104 95.5374L88.049 49.4415L34.8305 48.7824L35.0433 31.5962L119.9 32.6471L119.803 40.459L78.3056 87.019L78.302 87.312C104.646 89.331 119.433 99.3131 122.661 117.258C123.146 120.129 123.363 123.713 123.309 128.009C123.257 132.241 122.126 136.784 119.918 141.64C117.774 146.497 114.368 150.752 109.7 154.405Z"/>
</mask>
<path d="M109.7 154.405L115.85 162.291L115.857 162.285L115.863 162.28L109.7 154.405ZM91.8205 162.876L94.4484 172.524L94.4882 172.513L94.5278 172.502L91.8205 162.876ZM30.5875 162.703L20.5882 162.58L20.4907 170.457L28.1267 172.396L30.5875 162.703ZM30.816 144.248L33.9757 134.76L20.9863 130.434L20.8168 144.124L30.816 144.248ZM93.7308 142.683L99.2586 151.016L99.2685 151.01L99.2783 151.003L93.7308 142.683ZM93.4584 109.474L98.287 100.717L98.278 100.712L98.269 100.707L93.4584 109.474ZM48.4136 103.349L38.4144 103.226L38.2906 113.225L48.2898 113.349L48.4136 103.349ZM48.5104 95.5374L40.9201 89.0269L38.5561 91.7829L38.5111 95.4136L48.5104 95.5374ZM88.049 49.4415L95.6393 55.952L109.573 39.7072L88.1729 39.4422L88.049 49.4415ZM34.8305 48.7824L24.8312 48.6586L24.7074 58.6578L34.7066 58.7817L34.8305 48.7824ZM35.0433 31.5962L35.1671 21.597L25.1679 21.4732L25.044 31.4724L35.0433 31.5962ZM119.9 32.6471L129.899 32.7709L130.023 22.7717L120.024 22.6478L119.9 32.6471ZM119.803 40.459L127.269 47.1125L129.756 44.3214L129.803 40.5828L119.803 40.459ZM78.3056 87.019L70.8404 80.3654L68.3527 83.1566L68.3064 86.8952L78.3056 87.019ZM78.302 87.312L68.3028 87.1881L68.1866 96.566L77.5378 97.2827L78.302 87.312ZM122.661 117.258L132.521 115.591L132.512 115.539L132.503 115.487L122.661 117.258ZM119.918 141.64L110.815 137.5L110.792 137.551L110.769 137.602L119.918 141.64ZM103.55 146.52C100.23 149.109 95.5412 151.441 89.1132 153.249L94.5278 172.502C102.735 170.194 109.966 166.88 115.85 162.291L103.55 146.52ZM89.1926 153.227C83.2009 154.859 73.9845 155.779 61.0486 155.619L60.801 175.618C74.4255 175.786 85.8063 174.878 94.4484 172.524L89.1926 153.227ZM61.0486 155.619C48.0877 155.459 38.9082 154.499 33.0482 153.011L28.1267 172.396C36.2863 174.468 47.3316 175.451 60.801 175.618L61.0486 155.619ZM40.5867 162.827L40.8152 144.372L20.8168 144.124L20.5882 162.58L40.5867 162.827ZM27.6563 153.736C36.8164 156.786 48.9391 158.184 63.4562 158.364L63.7039 138.366C49.9679 138.195 40.2479 136.849 33.9757 134.76L27.6563 153.736ZM63.4562 158.364C77.965 158.544 90.6354 156.736 99.2586 151.016L88.203 134.35C84.8783 136.555 77.4481 138.536 63.7039 138.366L63.4562 158.364ZM99.2783 151.003C108.078 145.136 112.794 136.402 112.925 125.83L92.9269 125.582C92.8772 129.591 91.4634 132.176 88.1834 134.363L99.2783 151.003ZM112.925 125.83C112.989 120.673 111.897 115.653 109.265 111.141C106.634 106.63 102.803 103.207 98.287 100.717L88.6299 118.231C90.5163 119.271 91.4642 120.318 91.9889 121.218C92.5129 122.116 92.9533 123.447 92.9269 125.582L112.925 125.83ZM98.269 100.707C89.0352 95.6404 75.1113 93.6792 58.3023 93.471L58.0547 113.469C74.4463 113.672 84.0424 115.714 88.6479 118.241L98.269 100.707ZM58.3023 93.471L48.5375 93.3501L48.2898 113.349L58.0547 113.469L58.3023 93.471ZM58.4129 103.473L58.5096 95.6613L38.5111 95.4136L38.4144 103.226L58.4129 103.473ZM56.1007 102.048L95.6393 55.952L80.4587 42.9309L40.9201 89.0269L56.1007 102.048ZM88.1729 39.4422L34.9543 38.7832L34.7066 58.7817L87.9252 59.4407L88.1729 39.4422ZM44.8297 48.9063L45.0425 31.7201L25.044 31.4724L24.8312 48.6586L44.8297 48.9063ZM34.9195 41.5955L119.776 42.6463L120.024 22.6478L35.1671 21.597L34.9195 41.5955ZM109.901 32.5232L109.804 40.3351L129.803 40.5828L129.899 32.7709L109.901 32.5232ZM112.338 33.8054L70.8404 80.3654L85.7709 93.6726L127.269 47.1125L112.338 33.8054ZM68.3064 86.8952L68.3028 87.1881L88.3012 87.4358L88.3049 87.1428L68.3064 86.8952ZM77.5378 97.2827C89.7537 98.219 98.1276 100.937 103.555 104.601C108.656 108.045 111.671 112.647 112.819 119.029L132.503 115.487C130.423 103.924 124.43 94.5629 114.745 88.0246C105.386 81.7063 93.1945 78.424 79.0662 77.3412L77.5378 97.2827ZM112.801 118.925C113.151 120.997 113.359 123.934 113.31 127.885L133.309 128.133C133.366 123.491 133.142 119.26 132.521 115.591L112.801 118.925ZM113.31 127.885C113.279 130.419 112.594 133.588 110.815 137.5L129.02 145.78C131.658 139.98 133.235 134.062 133.309 128.133L113.31 127.885ZM110.769 137.602C109.364 140.785 107.063 143.771 103.537 146.53L115.863 162.28C121.673 157.733 126.184 152.208 129.066 145.678L110.769 137.602Z" fill="#B4CD00" fill-opacity="0.6" mask="url(#path-1-outside-1_62_413)"/>
</svg>
