<svg width="93" height="134" viewBox="0 0 93 134" fill="none" xmlns="http://www.w3.org/2000/svg">
<mask id="path-1-outside-1_62_413" maskUnits="userSpaceOnUse" x="-10" y="-10" width="113" height="154" fill="black">
<rect fill="white" x="-10" y="-10" width="113" height="154"/>
<path d="M79.375 122.062C74.8177 125.708 68.8932 128.605 61.6016 130.754C54.3099 132.837 44.0234 133.879 30.7422 133.879C17.526 133.879 7.40234 133.033 0.371094 131.34V112.883C8.11849 115.357 19.056 116.594 33.1836 116.594C47.3112 116.594 57.3372 114.576 63.2617 110.539C69.2513 106.438 72.2461 100.741 72.2461 93.4492C72.2461 86.1576 69.0234 80.7865 62.5781 77.3359C55.612 73.625 43.8281 71.7695 27.2266 71.7695H17.4609V63.957L56.4258 17.375H3.20312V0.1875H88.0664V8L47.1484 55.0703V55.3633C73.5156 57.056 88.4245 66.8542 91.875 84.7578C92.3958 87.6224 92.6562 91.2031 92.6562 95.5C92.6562 99.7318 91.582 104.289 89.4336 109.172C87.3503 114.055 83.9974 118.352 79.375 122.062Z"/>
</mask>
<path d="M79.375 122.062L85.6219 129.871L85.6286 129.866L85.6353 129.86L79.375 122.062ZM61.6016 130.754L64.3488 140.369L64.3884 140.358L64.4279 140.346L61.6016 130.754ZM0.371094 131.34H-9.62891V139.218L-1.96944 141.062L0.371094 131.34ZM0.371094 112.883L3.41304 103.357L-9.62891 99.1921V112.883H0.371094ZM63.2617 110.539L68.8923 118.803L68.902 118.797L68.9118 118.79L63.2617 110.539ZM62.5781 77.3359L67.2979 68.5198L67.2888 68.515L67.2797 68.5101L62.5781 77.3359ZM17.4609 71.7695H7.46094V81.7695H17.4609V71.7695ZM17.4609 63.957L9.7906 57.541L7.46094 60.326V63.957H17.4609ZM56.4258 17.375L64.0961 23.7911L77.8278 7.375H56.4258V17.375ZM3.20312 17.375H-6.79688V27.375H3.20312V17.375ZM3.20312 0.1875V-9.8125H-6.79688V0.1875H3.20312ZM88.0664 0.1875H98.0664V-9.8125H88.0664V0.1875ZM88.0664 8L95.6135 14.5606L98.0664 11.7389V8H88.0664ZM47.1484 55.0703L39.6014 48.5097L37.1484 51.3314V55.0703H47.1484ZM47.1484 55.3633H37.1484V64.7419L46.5078 65.3427L47.1484 55.3633ZM91.875 84.7578L101.714 82.969L101.704 82.9171L101.694 82.8654L91.875 84.7578ZM89.4336 109.172L80.2804 105.144L80.2578 105.196L80.2358 105.247L89.4336 109.172ZM73.128 114.254C69.8404 116.884 65.1804 119.274 58.7753 121.162L64.4279 140.346C72.6061 137.937 79.7951 134.533 85.6219 129.871L73.128 114.254ZM58.8544 121.139C52.8833 122.845 43.6791 123.879 30.7422 123.879V143.879C44.3678 143.879 55.7365 142.83 64.3488 140.369L58.8544 121.139ZM30.7422 123.879C17.7802 123.879 8.58957 123.033 2.71163 121.618L-1.96944 141.062C6.21511 143.032 17.2718 143.879 30.7422 143.879V123.879ZM10.3711 131.34V112.883H-9.62891V131.34H10.3711ZM-2.67085 122.409C6.5263 125.346 18.6654 126.594 33.1836 126.594V106.594C19.4466 106.594 9.71068 105.368 3.41304 103.357L-2.67085 122.409ZM33.1836 126.594C47.6935 126.594 60.3405 124.63 68.8923 118.803L57.6312 102.275C54.334 104.521 46.9289 106.594 33.1836 106.594V126.594ZM68.9118 118.79C77.6383 112.814 82.2461 104.023 82.2461 93.4492H62.2461C62.2461 97.4591 60.8643 100.061 57.6117 102.288L68.9118 118.79ZM82.2461 93.4492C82.2461 88.2925 81.0917 83.2866 78.404 78.8072C75.7172 74.3292 71.844 70.9536 67.2979 68.5198L57.8584 86.1521C59.7576 87.1688 60.7183 88.204 61.2542 89.0971C61.7892 89.9888 62.2461 91.3143 62.2461 93.4492H82.2461ZM67.2797 68.5101C57.9839 63.5582 44.0368 61.7695 27.2266 61.7695V81.7695C43.6195 81.7695 53.24 83.6918 57.8765 86.1617L67.2797 68.5101ZM27.2266 61.7695H17.4609V81.7695H27.2266V61.7695ZM27.4609 71.7695V63.957H7.46094V71.7695H27.4609ZM25.1313 70.3731L64.0961 23.7911L48.7554 10.9589L9.7906 57.541L25.1313 70.3731ZM56.4258 7.375H3.20312V27.375H56.4258V7.375ZM13.2031 17.375V0.1875H-6.79688V17.375H13.2031ZM3.20312 10.1875H88.0664V-9.8125H3.20312V10.1875ZM78.0664 0.1875V8H98.0664V0.1875H78.0664ZM80.5193 1.43938L39.6014 48.5097L54.6955 61.6309L95.6135 14.5606L80.5193 1.43938ZM37.1484 55.0703V55.3633H57.1484V55.0703H37.1484ZM46.5078 65.3427C58.7343 66.1277 67.1413 68.742 72.6133 72.3383C77.7567 75.7185 80.8286 80.2832 82.0557 86.6503L101.694 82.8654C99.4709 71.3287 93.3631 62.0425 83.5976 55.6246C74.1608 49.4227 61.9298 46.2916 47.7891 45.3838L46.5078 65.3427ZM82.0363 86.5467C82.4123 88.6147 82.6562 91.5488 82.6562 95.5H102.656C102.656 90.8575 102.379 86.6301 101.714 82.969L82.0363 86.5467ZM82.6562 95.5C82.6562 98.034 82.0111 101.211 80.2804 105.144L98.5867 113.199C101.153 107.367 102.656 101.43 102.656 95.5H82.6562ZM80.2358 105.247C78.8705 108.447 76.6062 111.461 73.1147 114.265L85.6353 129.86C91.3886 125.242 95.83 119.662 98.6314 113.096L80.2358 105.247Z" fill="#B4CD00" fill-opacity="0.6" mask="url(#path-1-outside-1_62_413)"/>
</svg>
