<svg width="128" height="172" viewBox="0 0 128 172" fill="none" xmlns="http://www.w3.org/2000/svg">
<mask id="path-1-outside-1_62_413" maskUnits="userSpaceOnUse" x="19.11" y="40.2322" width="91.4914" height="122.105" fill="black">
<rect fill="white" x="19.11" y="40.2322" width="91.4914" height="122.105"/>
<path d="M88.6237 142.879C85.1721 145.571 80.7022 147.689 75.2139 149.232C69.7263 150.727 62.0023 151.412 52.0422 151.289C42.1308 151.166 34.5465 150.438 29.2892 149.103L29.4606 135.261C35.2477 137.188 43.4387 138.218 54.0336 138.349C64.6285 138.48 72.1662 137.06 76.6467 134.088C81.1766 131.067 83.4755 126.823 83.5432 121.355C83.6109 115.886 81.244 111.828 76.4424 109.181C71.2526 106.333 62.4327 104.832 49.9825 104.678L42.6588 104.587L42.7313 98.7284L72.3853 64.1564L32.4714 63.6621L32.631 50.7725L96.2736 51.5606L96.2011 57.4195L65.0778 92.3396L65.0751 92.5593C84.8332 94.0736 95.923 101.56 98.3444 115.019C98.7084 117.172 98.8705 119.86 98.8306 123.082C98.7913 126.256 97.9433 129.663 96.2868 133.305C94.6791 136.948 92.1247 140.139 88.6237 142.879Z"/>
</mask>
<path d="M88.6237 142.879L94.7735 150.765L94.7803 150.759L94.787 150.754L88.6237 142.879ZM75.2139 149.232L77.8419 158.881L77.8816 158.87L77.9212 158.859L75.2139 149.232ZM29.2892 149.103L19.2899 148.979L19.1924 156.857L26.8284 158.795L29.2892 149.103ZM29.4606 135.261L32.6203 125.774L19.6309 121.448L19.4613 135.137L29.4606 135.261ZM76.6467 134.088L82.1745 142.421L82.1843 142.414L82.1941 142.408L76.6467 134.088ZM76.4424 109.181L81.2709 100.424L81.2619 100.419L81.2529 100.414L76.4424 109.181ZM42.6588 104.587L32.6596 104.463L32.5357 114.463L42.535 114.587L42.6588 104.587ZM42.7313 98.7284L35.141 92.2178L32.7771 94.9739L32.7321 98.6046L42.7313 98.7284ZM72.3853 64.1564L79.9756 70.667L93.9095 54.4222L72.5092 54.1572L72.3853 64.1564ZM32.4714 63.6621L22.4722 63.5383L22.3484 73.5375L32.3476 73.6614L32.4714 63.6621ZM32.631 50.7725L32.7549 40.7733L22.7556 40.6494L22.6318 50.6487L32.631 50.7725ZM96.2736 51.5606L106.273 51.6844L106.397 41.6852L96.3974 41.5614L96.2736 51.5606ZM96.2011 57.4195L103.666 64.0731L106.154 61.282L106.2 57.5434L96.2011 57.4195ZM65.0778 92.3396L57.6125 85.686L55.1249 88.4772L55.0786 92.2157L65.0778 92.3396ZM65.0751 92.5593L55.0758 92.4355L54.9597 101.813L64.3109 102.53L65.0751 92.5593ZM98.3444 115.019L108.205 113.352L108.196 113.3L108.186 113.248L98.3444 115.019ZM96.2868 133.305L87.1842 129.165L87.161 129.216L87.1383 129.267L96.2868 133.305ZM82.4739 134.994C80.3044 136.686 77.1052 138.312 72.5066 139.606L77.9212 158.859C84.2993 157.065 90.0399 154.456 94.7735 150.765L82.4739 134.994ZM72.586 139.584C68.4235 140.717 61.7818 141.409 52.166 141.29L51.9183 161.288C62.2229 161.416 71.029 160.736 77.8419 158.881L72.586 139.584ZM52.166 141.29C42.5088 141.17 35.8574 140.453 31.7499 139.41L26.8284 158.795C33.2355 160.422 41.7528 161.162 51.9183 161.288L52.166 141.29ZM39.2884 149.227L39.4598 135.385L19.4613 135.137L19.2899 148.979L39.2884 149.227ZM26.3009 144.749C33.5319 147.157 42.9243 148.212 53.9098 148.348L54.1574 128.35C43.9531 128.223 36.9635 127.22 32.6203 125.774L26.3009 144.749ZM53.9098 148.348C64.8869 148.484 75.0447 147.15 82.1745 142.421L71.1189 125.754C69.2876 126.969 64.3701 128.476 54.1574 128.35L53.9098 148.348ZM82.1941 142.408C89.484 137.547 93.4341 130.228 93.5424 121.478L73.5439 121.231C73.5169 123.418 72.8692 124.587 71.0992 125.767L82.1941 142.408ZM93.5424 121.478C93.595 117.234 92.6942 113.008 90.4567 109.172C88.2201 105.337 84.9863 102.472 81.2709 100.424L71.6138 117.938C72.7001 118.537 73.0505 119.025 73.1808 119.248C73.3102 119.47 73.5591 120.007 73.5439 121.231L93.5424 121.478ZM81.2529 100.414C73.7491 96.2964 62.7651 94.8355 50.1063 94.6788L49.8586 114.677C62.1002 114.829 68.7562 116.37 71.6319 117.948L81.2529 100.414ZM50.1063 94.6788L42.7826 94.5881L42.535 114.587L49.8586 114.677L50.1063 94.6788ZM52.658 104.711L52.7306 98.8522L32.7321 98.6046L32.6596 104.463L52.658 104.711ZM50.3216 105.239L79.9756 70.667L64.795 57.6459L35.141 92.2178L50.3216 105.239ZM72.5092 54.1572L32.5952 53.6629L32.3476 73.6614L72.2615 74.1556L72.5092 54.1572ZM42.4706 63.786L42.6303 50.8963L22.6318 50.6487L22.4722 63.5383L42.4706 63.786ZM32.5072 60.7717L96.1498 61.5599L96.3974 41.5614L32.7549 40.7733L32.5072 60.7717ZM86.2744 51.4368L86.2018 57.2957L106.2 57.5434L106.273 51.6844L86.2744 51.4368ZM88.7358 50.766L57.6125 85.686L72.543 98.9931L103.666 64.0731L88.7358 50.766ZM55.0786 92.2157L55.0758 92.4355L75.0743 92.6831L75.077 92.4634L55.0786 92.2157ZM64.3109 102.53C73.2337 103.214 79.037 105.182 82.6158 107.598C85.8687 109.794 87.7579 112.651 88.5025 116.79L108.186 113.248C106.51 103.928 101.643 96.3123 93.8062 91.0217C86.2953 85.9512 76.6746 83.419 65.8393 82.5885L64.3109 102.53ZM88.4843 116.686C88.7134 118.041 88.867 120.082 88.8313 122.958L108.83 123.206C108.874 119.638 108.703 116.303 108.205 113.352L88.4843 116.686ZM88.8313 122.958C88.8131 124.434 88.4112 126.467 87.1842 129.165L105.389 137.446C107.475 132.86 108.769 128.077 108.83 123.206L88.8313 122.958ZM87.1383 129.267C86.2694 131.236 84.8194 133.158 82.4604 135.004L94.787 150.754C99.43 147.12 103.089 142.66 105.435 137.343L87.1383 129.267Z" fill="#B4CD00" fill-opacity="0.6" mask="url(#path-1-outside-1_62_413)"/>
</svg>
