<svg width="150" height="200" viewBox="0 0 150 200" fill="none" xmlns="http://www.w3.org/2000/svg">
<mask id="path-1-outside-1_124_17" maskUnits="userSpaceOnUse" x="12" y="31" width="126" height="153" fill="black">
<rect fill="white" x="12" y="31" width="126" height="153"/>
<path d="M22.168 134.156L76.3672 41.1875H99.4141L49.8047 124.293H96.582V97.1445H116.309V124.293H127.441V141.48H116.309V174H96.582V141.48H22.168V134.156Z"/>
</mask>
<path d="M22.168 134.156L13.5289 129.12L12.168 131.454V134.156H22.168ZM76.3672 41.1875V31.1875H70.6217L67.7281 36.151L76.3672 41.1875ZM99.4141 41.1875L108.001 46.3132L117.03 31.1875H99.4141V41.1875ZM49.8047 124.293L41.2182 119.167L32.189 134.293H49.8047V124.293ZM96.582 124.293V134.293H106.582V124.293H96.582ZM96.582 97.1445V87.1445H86.582V97.1445H96.582ZM116.309 97.1445H126.309V87.1445H116.309V97.1445ZM116.309 124.293H106.309V134.293H116.309V124.293ZM127.441 124.293H137.441V114.293H127.441V124.293ZM127.441 141.48V151.48H137.441V141.48H127.441ZM116.309 141.48V131.48H106.309V141.48H116.309ZM116.309 174V184H126.309V174H116.309ZM96.582 174H86.582V184H96.582V174ZM96.582 141.48H106.582V131.48H96.582V141.48ZM22.168 141.48H12.168V151.48H22.168V141.48ZM30.8071 139.193L85.0063 46.224L67.7281 36.151L13.5289 129.12L30.8071 139.193ZM76.3672 51.1875H99.4141V31.1875H76.3672V51.1875ZM90.8276 36.0618L41.2182 119.167L58.3912 129.419L108.001 46.3132L90.8276 36.0618ZM49.8047 134.293H96.582V114.293H49.8047V134.293ZM106.582 124.293V97.1445H86.582V124.293H106.582ZM96.582 107.145H116.309V87.1445H96.582V107.145ZM106.309 97.1445V124.293H126.309V97.1445H106.309ZM116.309 134.293H127.441V114.293H116.309V134.293ZM117.441 124.293V141.48H137.441V124.293H117.441ZM127.441 131.48H116.309V151.48H127.441V131.48ZM106.309 141.48V174H126.309V141.48H106.309ZM116.309 164H96.582V184H116.309V164ZM106.582 174V141.48H86.582V174H106.582ZM96.582 131.48H22.168V151.48H96.582V131.48ZM32.168 141.48V134.156H12.168V141.48H32.168Z" fill="#B4CD00" fill-opacity="0.6" mask="url(#path-1-outside-1_124_17)"/>
</svg>
