<svg width="106" height="133" viewBox="0 0 106 133" fill="none" xmlns="http://www.w3.org/2000/svg">
<mask id="path-1-outside-1_62_416" maskUnits="userSpaceOnUse" x="-10" y="-10" width="126" height="153" fill="black">
<rect fill="white" x="-10" y="-10" width="126" height="153"/>
<path d="M0.167969 93.1562L54.3672 0.1875H77.4141L27.8047 83.293H74.582V56.1445H94.3086V83.293H105.441V100.48H94.3086V133H74.582V100.48H0.167969V93.1562Z"/>
</mask>
<path d="M0.167969 93.1562L-8.47114 88.1198L-9.83203 90.4542V93.1562H0.167969ZM54.3672 0.1875V-9.8125H48.6217L45.7281 -4.84895L54.3672 0.1875ZM77.4141 0.1875L86.0005 5.31316L95.0297 -9.8125H77.4141V0.1875ZM27.8047 83.293L19.2182 78.1673L10.189 93.293H27.8047V83.293ZM74.582 83.293V93.293H84.582V83.293H74.582ZM74.582 56.1445V46.1445H64.582V56.1445H74.582ZM94.3086 56.1445H104.309V46.1445H94.3086V56.1445ZM94.3086 83.293H84.3086V93.293H94.3086V83.293ZM105.441 83.293H115.441V73.293H105.441V83.293ZM105.441 100.48V110.48H115.441V100.48H105.441ZM94.3086 100.48V90.4805H84.3086V100.48H94.3086ZM94.3086 133V143H104.309V133H94.3086ZM74.582 133H64.582V143H74.582V133ZM74.582 100.48H84.582V90.4805H74.582V100.48ZM0.167969 100.48H-9.83203V110.48H0.167969V100.48ZM8.80707 98.1927L63.0063 5.22395L45.7281 -4.84895L-8.47114 88.1198L8.80707 98.1927ZM54.3672 10.1875H77.4141V-9.8125H54.3672V10.1875ZM68.8276 -4.93816L19.2182 78.1673L36.3912 88.4186L86.0005 5.31316L68.8276 -4.93816ZM27.8047 93.293H74.582V73.293H27.8047V93.293ZM84.582 83.293V56.1445H64.582V83.293H84.582ZM74.582 66.1445H94.3086V46.1445H74.582V66.1445ZM84.3086 56.1445V83.293H104.309V56.1445H84.3086ZM94.3086 93.293H105.441V73.293H94.3086V93.293ZM95.4414 83.293V100.48H115.441V83.293H95.4414ZM105.441 90.4805H94.3086V110.48H105.441V90.4805ZM84.3086 100.48V133H104.309V100.48H84.3086ZM94.3086 123H74.582V143H94.3086V123ZM84.582 133V100.48H64.582V133H84.582ZM74.582 90.4805H0.167969V110.48H74.582V90.4805ZM10.168 100.48V93.1562H-9.83203V100.48H10.168Z" fill="#B4CD00" fill-opacity="0.6" mask="url(#path-1-outside-1_62_416)"/>
</svg>
