<svg width="92" height="134" viewBox="0 0 92 134" fill="none" xmlns="http://www.w3.org/2000/svg">
<mask id="path-1-outside-1_62_422" maskUnits="userSpaceOnUse" x="-10" y="-10" width="112" height="154" fill="black">
<rect fill="white" x="-10" y="-10" width="112" height="154"/>
<path d="M0.371094 112.395C9.22526 114.868 19.9674 116.105 32.5977 116.105C45.2279 116.105 54.7656 114.087 61.2109 110.051C67.7214 105.949 70.9766 99.4388 70.9766 90.5195C70.9766 82.3815 68.2422 76.457 62.7734 72.7461C56.4583 68.3841 45.944 66.2031 31.2305 66.2031H3.98438V0.578125H84.1602V18.9375H22.7344V49.7969H34.1602C53.8867 49.7969 68.2422 52.987 77.2266 59.3672C86.4714 65.9427 91.0938 76.457 91.0938 90.9102C91.0938 103.605 86.4714 113.729 77.2266 121.281C67.0703 129.68 52.1615 133.879 32.5 133.879C18.112 133.879 7.40234 133.033 0.371094 131.34V112.395Z"/>
</mask>
<path d="M0.371094 112.395L3.06214 102.763L-9.62891 99.2174V112.395H0.371094ZM61.2109 110.051L66.5186 118.526L66.53 118.519L66.5413 118.512L61.2109 110.051ZM62.7734 72.7461L57.0902 80.9741L57.1242 80.9976L57.1584 81.0209L62.7734 72.7461ZM3.98438 66.2031H-6.01562V76.2031H3.98438V66.2031ZM3.98438 0.578125V-9.42188H-6.01562V0.578125H3.98438ZM84.1602 0.578125H94.1602V-9.42188H84.1602V0.578125ZM84.1602 18.9375V28.9375H94.1602V18.9375H84.1602ZM22.7344 18.9375V8.9375H12.7344V18.9375H22.7344ZM22.7344 49.7969H12.7344V59.7969H22.7344V49.7969ZM77.2266 59.3672L83.0227 51.2182L83.0166 51.2139L77.2266 59.3672ZM77.2266 121.281L70.9001 113.537L70.877 113.556L70.8539 113.575L77.2266 121.281ZM0.371094 131.34H-9.62891V139.218L-1.96944 141.062L0.371094 131.34ZM-2.31995 122.026C7.66801 124.816 19.3712 126.105 32.5977 126.105V106.105C20.5637 106.105 10.7825 104.921 3.06214 102.763L-2.31995 122.026ZM32.5977 126.105C45.9955 126.105 57.7493 124.018 66.5186 118.526L55.9033 101.576C51.7819 104.157 44.4603 106.105 32.5977 106.105V126.105ZM66.5413 118.512C76.4626 112.261 80.9766 102.232 80.9766 90.5195H60.9766C60.9766 96.6455 58.9801 99.6372 55.8806 101.59L66.5413 118.512ZM80.9766 90.5195C80.9766 79.9378 77.2494 70.4841 68.3885 64.4713L57.1584 81.0209C59.2349 82.4299 60.9766 84.8253 60.9766 90.5195H80.9766ZM68.4567 64.5181C59.5258 58.3493 46.3983 56.2031 31.2305 56.2031V76.2031C45.4897 76.2031 53.3909 78.4189 57.0902 80.9741L68.4567 64.5181ZM31.2305 56.2031H3.98438V76.2031H31.2305V56.2031ZM13.9844 66.2031V0.578125H-6.01562V66.2031H13.9844ZM3.98438 10.5781H84.1602V-9.42188H3.98438V10.5781ZM74.1602 0.578125V18.9375H94.1602V0.578125H74.1602ZM84.1602 8.9375H22.7344V28.9375H84.1602V8.9375ZM12.7344 18.9375V49.7969H32.7344V18.9375H12.7344ZM22.7344 59.7969H34.1602V39.7969H22.7344V59.7969ZM34.1602 59.7969C53.2488 59.7969 65.0253 62.9675 71.4366 67.5205L83.0166 51.2139C71.4591 43.0064 54.5247 39.7969 34.1602 39.7969V59.7969ZM71.4305 67.5161C77.325 71.7087 81.0938 78.7068 81.0938 90.9102H101.094C101.094 74.2072 95.6177 60.1767 83.0226 51.2182L71.4305 67.5161ZM81.0938 90.9102C81.0938 100.822 77.6558 108.018 70.9001 113.537L83.553 129.026C95.2869 119.44 101.094 106.389 101.094 90.9102H81.0938ZM70.8539 113.575C63.188 119.914 50.9383 123.879 32.5 123.879V143.879C53.3846 143.879 70.9526 139.445 83.5992 128.988L70.8539 113.575ZM32.5 123.879C18.2862 123.879 8.54878 123.023 2.71163 121.618L-1.96944 141.062C6.25591 143.042 17.9378 143.879 32.5 143.879V123.879ZM10.3711 131.34V112.395H-9.62891V131.34H10.3711Z" fill="#B4CD00" fill-opacity="0.6" mask="url(#path-1-outside-1_62_422)"/>
</svg>
