<svg width="150" height="200" viewBox="0 0 150 200" fill="none" xmlns="http://www.w3.org/2000/svg">
<mask id="path-1-outside-1_124_20" maskUnits="userSpaceOnUse" x="15" y="26" width="121" height="167" fill="black">
<rect fill="white" x="15" y="26" width="121" height="167"/>
<path d="M25.9082 159.334C35.6478 162.055 47.4642 163.416 61.3574 163.416C75.2507 163.416 85.7422 161.196 92.832 156.756C99.9935 152.244 103.574 145.083 103.574 135.271C103.574 126.32 100.566 119.803 94.5508 115.721C87.6042 110.923 76.0384 108.523 59.8535 108.523H29.8828V36.3359H118.076V56.5312H50.5078V90.4766H63.0762C84.7754 90.4766 100.566 93.9857 110.449 101.004C120.618 108.237 125.703 119.803 125.703 135.701C125.703 149.666 120.618 160.802 110.449 169.109C99.2773 178.348 82.8776 182.967 61.25 182.967C45.4232 182.967 33.6426 182.036 25.9082 180.174V159.334Z"/>
</mask>
<path d="M25.9082 159.334L28.5992 149.703L15.9082 146.157V159.334H25.9082ZM92.832 156.756L98.1397 165.231L98.1511 165.224L98.1624 165.217L92.832 156.756ZM94.5508 115.721L88.8675 123.949L88.9015 123.972L88.9358 123.995L94.5508 115.721ZM29.8828 108.523H19.8828V118.523H29.8828V108.523ZM29.8828 36.3359V26.3359H19.8828V36.3359H29.8828ZM118.076 36.3359H128.076V26.3359H118.076V36.3359ZM118.076 56.5312V66.5312H128.076V56.5312H118.076ZM50.5078 56.5312V46.5312H40.5078V56.5312H50.5078ZM50.5078 90.4766H40.5078V100.477H50.5078V90.4766ZM110.449 101.004L116.245 92.8549L116.239 92.8506L110.449 101.004ZM110.449 169.109L104.123 161.365L104.1 161.384L104.077 161.403L110.449 169.109ZM25.9082 180.174H15.9082V188.052L23.5677 189.896L25.9082 180.174ZM23.2172 168.965C34.0905 172.003 46.8679 173.416 61.3574 173.416V153.416C48.0605 153.416 37.205 152.107 28.5992 149.703L23.2172 168.965ZM61.3574 173.416C76.0182 173.416 88.7259 171.127 98.1397 165.231L87.5243 148.281C82.7585 151.265 74.4831 153.416 61.3574 153.416V173.416ZM98.1624 165.217C108.735 158.556 113.574 147.876 113.574 135.271H93.5742C93.5742 142.289 91.2522 145.932 87.5017 148.295L98.1624 165.217ZM113.574 135.271C113.574 123.876 109.574 113.83 100.166 107.446L88.9358 123.995C91.5592 125.776 93.5742 128.763 93.5742 135.271H113.574ZM100.234 107.493C90.6716 100.888 76.4927 98.5234 59.8535 98.5234V118.523C75.5841 118.523 84.5367 120.957 88.8675 123.949L100.234 107.493ZM59.8535 98.5234H29.8828V118.523H59.8535V98.5234ZM39.8828 108.523V36.3359H19.8828V108.523H39.8828ZM29.8828 46.3359H118.076V26.3359H29.8828V46.3359ZM108.076 36.3359V56.5312H128.076V36.3359H108.076ZM118.076 46.5312H50.5078V66.5312H118.076V46.5312ZM40.5078 56.5312V90.4766H60.5078V56.5312H40.5078ZM50.5078 100.477H63.0762V80.4766H50.5078V100.477ZM63.0762 100.477C84.1375 100.477 97.3495 103.966 104.659 109.157L116.239 92.8506C103.783 84.0051 85.4133 80.4766 63.0762 80.4766V100.477ZM104.653 109.153C111.472 114.003 115.703 122.053 115.703 135.701H135.703C135.703 117.553 129.765 102.471 116.245 92.855L104.653 109.153ZM115.703 135.701C115.703 146.883 111.803 155.091 104.123 161.365L116.776 176.854C129.434 166.513 135.703 152.449 135.703 135.701H115.703ZM104.077 161.403C95.3951 168.582 81.6545 172.967 61.25 172.967V192.967C84.1007 192.967 103.16 188.113 116.822 176.816L104.077 161.403ZM61.25 172.967C45.5974 172.967 34.789 172.026 28.2487 170.452L23.5677 189.896C32.4961 192.046 45.2489 192.967 61.25 192.967V172.967ZM35.9082 180.174V159.334H15.9082V180.174H35.9082Z" fill="#B4CD00" fill-opacity="0.6" mask="url(#path-1-outside-1_124_20)"/>
</svg>
