<svg width="105" height="135" viewBox="0 0 105 135" fill="none" xmlns="http://www.w3.org/2000/svg">
<mask id="path-1-outside-1_124_23" maskUnits="userSpaceOnUse" x="-10" y="-10" width="125" height="155" fill="black">
<rect fill="white" x="-10" y="-10" width="125" height="155"/>
<path d="M92.1367 20.207C85.8867 18.2539 78.3021 17.2773 69.3828 17.2773C60.4635 17.2773 52.944 18.4167 46.8242 20.6953C40.7044 22.9089 35.6263 26.0339 31.5898 30.0703C23.6471 37.9479 19.6758 48.6901 19.6758 62.2969C27.2279 56.763 36.2122 52.987 46.6289 50.9688C50.2747 50.3177 54.7669 49.9922 60.1055 49.9922C65.444 49.9922 70.9453 50.9036 76.6094 52.7266C82.3385 54.4844 87.2539 57.0885 91.3555 60.5391C99.8841 67.8958 104.148 78.2474 104.148 91.5938C104.148 105.461 98.7122 116.301 87.8398 124.113C78.1393 131.079 66.5508 134.562 53.0742 134.562C35.8216 134.562 22.6055 128.898 13.4258 117.57C4.57161 106.763 0.144531 91.724 0.144531 72.4531V66.4961C0.144531 46.444 6.45964 30.3307 19.0898 18.1562C31.5898 6.17708 48.0938 0.1875 68.6016 0.1875H74.5586C82.3711 0.1875 88.2305 0.545573 92.1367 1.26172V20.207ZM19.8711 77.043C19.8711 96.5742 26.0234 109.628 38.3281 116.203C42.625 118.547 47.3776 119.719 52.5859 119.719C57.7943 119.719 62.2865 119.133 66.0625 117.961C69.9036 116.724 73.2565 114.966 76.1211 112.688C82.1758 107.674 85.2031 100.969 85.2031 92.5703C85.2031 84.1719 82.3385 77.4987 76.6094 72.5508C70.8802 67.5378 63.1328 65.0312 53.3672 65.0312C43.276 65.0312 33.8685 67.7005 25.1445 73.0391C22.8659 74.4714 21.1081 75.806 19.8711 77.043Z"/>
</mask>
<path d="M92.1367 20.207L89.154 29.7518L102.137 33.8089V20.207H92.1367ZM46.8242 20.6953L50.2256 30.0991L50.2697 30.0831L50.3136 30.0668L46.8242 20.6953ZM31.5898 30.0703L38.6318 37.1704L38.6464 37.1559L38.6609 37.1414L31.5898 30.0703ZM19.6758 62.2969H9.67578V82.0218L25.5864 70.3631L19.6758 62.2969ZM46.6289 50.9688L44.871 41.1245L44.7988 41.1374L44.7268 41.1513L46.6289 50.9688ZM76.6094 52.7266L73.5457 62.2457L73.6108 62.2666L73.6762 62.2867L76.6094 52.7266ZM91.3555 60.5391L97.8872 52.9669L97.8404 52.9266L97.7931 52.8868L91.3555 60.5391ZM87.8398 124.113L93.6728 132.236L93.6752 132.234L87.8398 124.113ZM13.4258 117.57L21.1951 111.274L21.1782 111.254L21.1612 111.233L13.4258 117.57ZM19.0898 18.1562L12.1708 10.9364L12.1603 10.9464L12.1499 10.9565L19.0898 18.1562ZM92.1367 1.26172H102.137V-7.07161L93.94 -8.57435L92.1367 1.26172ZM19.8711 77.043L12.8 69.9719L9.87109 72.9008V77.043H19.8711ZM38.3281 116.203L43.1166 107.424L43.079 107.404L43.0413 107.383L38.3281 116.203ZM66.0625 117.961L69.0265 127.512L69.0772 127.496L69.1278 127.48L66.0625 117.961ZM76.1211 112.688L82.3463 120.514L82.423 120.453L82.4985 120.39L76.1211 112.688ZM76.6094 72.5508L70.0243 80.0766L70.0487 80.0979L70.0732 80.119L76.6094 72.5508ZM25.1445 73.0391L19.9249 64.5094L19.8737 64.5407L19.8228 64.5727L25.1445 73.0391ZM95.1195 10.6622C87.6259 8.3205 78.974 7.27734 69.3828 7.27734V27.2773C77.6302 27.2773 84.1475 28.1873 89.154 29.7518L95.1195 10.6622ZM69.3828 7.27734C59.6786 7.27734 50.8972 8.50807 43.3348 11.3239L50.3136 30.0668C54.9908 28.3253 61.2484 27.2773 69.3828 27.2773V7.27734ZM43.4229 11.2915C36.1169 13.9341 29.7287 17.7893 24.5188 22.9992L38.6609 37.1414C41.5239 34.2784 45.292 31.8836 50.2256 30.0991L43.4229 11.2915ZM24.5479 22.9702C14.3157 33.1186 9.67578 46.6392 9.67578 62.2969H29.6758C29.6758 50.741 32.9786 42.7772 38.6318 37.1704L24.5479 22.9702ZM25.5864 70.3631C31.7984 65.8112 39.3697 62.5612 48.531 60.7862L44.7268 41.1513C33.0548 43.4128 22.6573 47.7148 13.7652 54.2306L25.5864 70.3631ZM48.3868 60.813C51.2604 60.2999 55.1226 59.9922 60.1055 59.9922V39.9922C54.4113 39.9922 49.289 40.3355 44.871 41.1245L48.3868 60.813ZM60.1055 59.9922C64.2923 59.9922 68.7595 60.7053 73.5457 62.2457L79.673 43.2074C73.1312 41.102 66.5957 39.9922 60.1055 39.9922V59.9922ZM73.6762 62.2867C78.2726 63.697 81.9593 65.7023 84.9179 68.1913L97.7931 52.8868C92.5485 48.4747 86.4045 45.2718 79.5426 43.1664L73.6762 62.2867ZM84.8238 68.1112C90.7382 73.2129 94.1484 80.5635 94.1484 91.5938H114.148C114.148 75.9313 109.03 62.5787 97.8872 52.9669L84.8238 68.1112ZM94.1484 91.5938C94.1484 102.378 90.1536 110.137 82.0045 115.992L93.6752 132.234C107.271 122.465 114.148 108.544 114.148 91.5938H94.1484ZM82.0069 115.991C74.2206 121.582 64.7381 124.562 53.0742 124.562V144.562C68.3635 144.562 82.0581 140.577 93.6728 132.236L82.0069 115.991ZM53.0742 124.562C38.222 124.562 28.1198 119.82 21.1951 111.274L5.65645 123.866C17.0911 137.977 33.4212 144.562 53.0742 144.562V124.562ZM21.1612 111.233C14.2411 102.786 10.1445 90.2827 10.1445 72.4531H-9.85547C-9.85547 93.1652 -5.09789 110.74 5.69036 123.908L21.1612 111.233ZM10.1445 72.4531V66.4961H-9.85547V72.4531H10.1445ZM10.1445 66.4961C10.1445 48.7353 15.6409 35.3701 26.0298 25.356L12.1499 10.9565C-2.72166 25.2914 -9.85547 44.1527 -9.85547 66.4961H10.1445ZM26.0089 25.3761C36.3102 15.5041 50.1643 10.1875 68.6016 10.1875V-9.8125C46.0232 -9.8125 26.8695 -3.14988 12.1708 10.9364L26.0089 25.3761ZM68.6016 10.1875H74.5586V-9.8125H68.6016V10.1875ZM74.5586 10.1875C82.2275 10.1875 87.3486 10.5506 90.3334 11.0978L93.94 -8.57435C89.1123 -9.45942 82.5147 -9.8125 74.5586 -9.8125V10.1875ZM82.1367 1.26172V20.207H102.137V1.26172H82.1367ZM9.87109 77.043C9.87109 98.5907 16.8061 116.04 33.615 125.023L43.0413 107.383C35.2407 103.215 29.8711 94.5577 29.8711 77.043H9.87109ZM33.5396 124.982C39.3996 128.178 45.8151 129.719 52.5859 129.719V109.719C48.9401 109.719 45.8504 108.915 43.1166 107.424L33.5396 124.982ZM52.5859 129.719C58.5002 129.719 64.0416 129.059 69.0265 127.512L63.0985 108.41C60.5313 109.207 57.0884 109.719 52.5859 109.719V129.719ZM69.1278 127.48C73.9983 125.911 78.4471 123.615 82.3463 120.514L69.8959 104.861C68.0659 106.317 65.809 107.537 62.9972 108.442L69.1278 127.48ZM82.4985 120.39C91.0213 113.333 95.2031 103.715 95.2031 92.5703H75.2031C75.2031 98.2228 73.3303 102.015 69.7437 104.985L82.4985 120.39ZM95.2031 92.5703C95.2031 81.6227 91.3308 72.0516 83.1456 64.9825L70.0732 80.119C73.3463 82.9458 75.2031 86.721 75.2031 92.5703H95.2031ZM83.1944 65.025C75.1748 58.0078 64.8518 55.0312 53.3672 55.0312V75.0312C61.4139 75.0312 66.5856 77.0677 70.0243 80.0766L83.1944 65.025ZM53.3672 55.0312C41.4078 55.0312 30.1976 58.2231 19.9249 64.5094L30.3642 81.5687C37.5393 77.178 45.1443 75.0312 53.3672 75.0312V55.0312ZM19.8228 64.5727C17.2107 66.2146 14.7686 68.0033 12.8 69.9719L26.9422 84.114C27.4475 83.6087 28.5211 82.7281 30.4662 81.5054L19.8228 64.5727Z" fill="#B4CD00" fill-opacity="0.6" mask="url(#path-1-outside-1_124_23)"/>
</svg>
