<svg width="150" height="180" viewBox="0 0 150 180" fill="none" xmlns="http://www.w3.org/2000/svg">
<mask id="path-1-outside-1_124_23" maskUnits="userSpaceOnUse" x="13" y="21" width="125" height="155" fill="black">
<rect fill="white" x="13" y="21" width="125" height="155"/>
<path d="M115.137 51.207C108.887 49.2539 101.302 48.2773 92.3828 48.2773C83.4635 48.2773 75.944 49.4167 69.8242 51.6953C63.7044 53.9089 58.6263 57.0339 54.5898 61.0703C46.6471 68.9479 42.6758 79.6901 42.6758 93.2969C50.2279 87.763 59.2122 83.987 69.6289 81.9688C73.2747 81.3177 77.7669 80.9922 83.1055 80.9922C88.444 80.9922 93.9453 81.9036 99.6094 83.7266C105.339 85.4844 110.254 88.0885 114.355 91.5391C122.884 98.8958 127.148 109.247 127.148 122.594C127.148 136.461 121.712 147.301 110.84 155.113C101.139 162.079 89.5508 165.562 76.0742 165.562C58.8216 165.562 45.6055 159.898 36.4258 148.57C27.5716 137.763 23.1445 122.724 23.1445 103.453V97.4961C23.1445 77.444 29.4596 61.3307 42.0898 49.1562C54.5898 37.1771 71.0938 31.1875 91.6016 31.1875H97.5586C105.371 31.1875 111.23 31.5456 115.137 32.2617V51.207ZM42.8711 108.043C42.8711 127.574 49.0234 140.628 61.3281 147.203C65.625 149.547 70.3776 150.719 75.5859 150.719C80.7943 150.719 85.2865 150.133 89.0625 148.961C92.9036 147.724 96.2565 145.966 99.1211 143.688C105.176 138.674 108.203 131.969 108.203 123.57C108.203 115.172 105.339 108.499 99.6094 103.551C93.8802 98.5378 86.1328 96.0312 76.3672 96.0312C66.276 96.0312 56.8685 98.7005 48.1445 104.039C45.8659 105.471 44.1081 106.806 42.8711 108.043Z"/>
</mask>
<path d="M115.137 51.207L112.154 60.7518L125.137 64.8089V51.207H115.137ZM69.8242 51.6953L73.2256 61.0991L73.2697 61.0831L73.3136 61.0668L69.8242 51.6953ZM54.5898 61.0703L61.6318 68.1704L61.6464 68.1559L61.6609 68.1414L54.5898 61.0703ZM42.6758 93.2969H32.6758V113.022L48.5864 101.363L42.6758 93.2969ZM69.6289 81.9688L67.871 72.1245L67.7988 72.1374L67.7268 72.1513L69.6289 81.9688ZM99.6094 83.7266L96.5457 93.2457L96.6108 93.2666L96.6762 93.2867L99.6094 83.7266ZM114.355 91.5391L120.887 83.9669L120.84 83.9266L120.793 83.8868L114.355 91.5391ZM110.84 155.113L116.673 163.236L116.675 163.234L110.84 155.113ZM36.4258 148.57L44.1951 142.274L44.1782 142.254L44.1612 142.233L36.4258 148.57ZM42.0898 49.1562L35.1708 41.9364L35.1603 41.9464L35.1499 41.9565L42.0898 49.1562ZM115.137 32.2617H125.137V23.9284L116.94 22.4257L115.137 32.2617ZM42.8711 108.043L35.8 100.972L32.8711 103.901V108.043H42.8711ZM61.3281 147.203L66.1166 138.424L66.079 138.404L66.0413 138.383L61.3281 147.203ZM89.0625 148.961L92.0265 158.512L92.0772 158.496L92.1278 158.48L89.0625 148.961ZM99.1211 143.688L105.346 151.514L105.423 151.453L105.498 151.39L99.1211 143.688ZM99.6094 103.551L93.0243 111.077L93.0487 111.098L93.0732 111.119L99.6094 103.551ZM48.1445 104.039L42.9249 95.5094L42.8737 95.5407L42.8228 95.5727L48.1445 104.039ZM118.119 41.6622C110.626 39.3205 101.974 38.2773 92.3828 38.2773V58.2773C100.63 58.2773 107.148 59.1873 112.154 60.7518L118.119 41.6622ZM92.3828 38.2773C82.6786 38.2773 73.8972 39.5081 66.3348 42.3239L73.3136 61.0668C77.9908 59.3253 84.2484 58.2773 92.3828 58.2773V38.2773ZM66.4229 42.2916C59.1169 44.9341 52.7287 48.7893 47.5188 53.9992L61.6609 68.1414C64.5239 65.2784 68.292 62.8836 73.2256 61.0991L66.4229 42.2916ZM47.5479 53.9702C37.3157 64.1186 32.6758 77.6392 32.6758 93.2969H52.6758C52.6758 81.741 55.9786 73.7772 61.6318 68.1704L47.5479 53.9702ZM48.5864 101.363C54.7984 96.8112 62.3697 93.5612 71.531 91.7862L67.7268 72.1513C56.0548 74.4128 45.6573 78.7148 36.7652 85.2306L48.5864 101.363ZM71.3868 91.813C74.2604 91.2999 78.1226 90.9922 83.1055 90.9922V70.9922C77.4113 70.9922 72.289 71.3355 67.871 72.1245L71.3868 91.813ZM83.1055 90.9922C87.2923 90.9922 91.7595 91.7053 96.5457 93.2457L102.673 74.2074C96.1312 72.102 89.5957 70.9922 83.1055 70.9922V90.9922ZM96.6762 93.2867C101.273 94.697 104.959 96.7024 107.918 99.1913L120.793 83.8868C115.549 79.4747 109.404 76.2718 102.543 74.1664L96.6762 93.2867ZM107.824 99.1112C113.738 104.213 117.148 111.563 117.148 122.594H137.148C137.148 106.931 132.03 93.5787 120.887 83.9669L107.824 99.1112ZM117.148 122.594C117.148 133.378 113.154 141.137 105.004 146.992L116.675 163.234C130.271 153.465 137.148 139.544 137.148 122.594H117.148ZM105.007 146.991C97.2206 152.582 87.7381 155.562 76.0742 155.562V175.562C91.3635 175.562 105.058 171.577 116.673 163.236L105.007 146.991ZM76.0742 155.562C61.222 155.562 51.1198 150.82 44.1951 142.274L28.6565 154.866C40.0911 168.977 56.4212 175.562 76.0742 175.562V155.562ZM44.1612 142.233C37.2411 133.786 33.1445 121.283 33.1445 103.453H13.1445C13.1445 124.165 17.9021 141.74 28.6904 154.908L44.1612 142.233ZM33.1445 103.453V97.4961H13.1445V103.453H33.1445ZM33.1445 97.4961C33.1445 79.7353 38.6409 66.3701 49.0298 56.356L35.1499 41.9565C20.2783 56.2914 13.1445 75.1527 13.1445 97.4961H33.1445ZM49.0089 56.3761C59.3102 46.504 73.1643 41.1875 91.6016 41.1875V21.1875C69.0232 21.1875 49.8695 27.8501 35.1708 41.9364L49.0089 56.3761ZM91.6016 41.1875H97.5586V21.1875H91.6016V41.1875ZM97.5586 41.1875C105.227 41.1875 110.349 41.5506 113.333 42.0978L116.94 22.4257C112.112 21.5406 105.515 21.1875 97.5586 21.1875V41.1875ZM105.137 32.2617V51.207H125.137V32.2617H105.137ZM32.8711 108.043C32.8711 129.591 39.8061 147.04 56.615 156.023L66.0413 138.383C58.2407 134.215 52.8711 125.558 52.8711 108.043H32.8711ZM56.5396 155.982C62.3996 159.178 68.8151 160.719 75.5859 160.719V140.719C71.9401 140.719 68.8504 139.915 66.1166 138.424L56.5396 155.982ZM75.5859 160.719C81.5002 160.719 87.0416 160.059 92.0265 158.512L86.0985 139.41C83.5313 140.207 80.0884 140.719 75.5859 140.719V160.719ZM92.1278 158.48C96.9983 156.911 101.447 154.615 105.346 151.514L92.8959 135.861C91.0659 137.317 88.809 138.537 85.9972 139.442L92.1278 158.48ZM105.498 151.39C114.021 144.333 118.203 134.715 118.203 123.57H98.2031C98.2031 129.223 96.3303 133.015 92.7437 135.985L105.498 151.39ZM118.203 123.57C118.203 112.623 114.331 103.052 106.146 95.9826L93.0732 111.119C96.3463 113.946 98.2031 117.721 98.2031 123.57H118.203ZM106.194 96.025C98.1748 89.0078 87.8518 86.0312 76.3672 86.0312V106.031C84.4139 106.031 89.5856 108.068 93.0243 111.077L106.194 96.025ZM76.3672 86.0312C64.4078 86.0312 53.1976 89.2231 42.9249 95.5094L53.3642 112.569C60.5393 108.178 68.1443 106.031 76.3672 106.031V86.0312ZM42.8228 95.5727C40.2107 97.2146 37.7686 99.0033 35.8 100.972L49.9422 115.114C50.4475 114.609 51.5211 113.728 53.4662 112.505L42.8228 95.5727Z" fill="#B4CD00" fill-opacity="0.6" mask="url(#path-1-outside-1_124_23)"/>
</svg>
