<svg width="101" height="133" viewBox="0 0 101 133" fill="none" xmlns="http://www.w3.org/2000/svg">
<mask id="path-1-outside-1_133_100" maskUnits="userSpaceOnUse" x="-10" y="-10" width="121" height="153" fill="black">
<rect fill="white" x="-10" y="-10" width="121" height="153"/>
<path d="M74.7812 17.4727H0.855469V0.285156H100.66V8.09766L36.5977 133H14.1367L74.7812 17.4727Z"/>
</mask>
<path d="M74.7812 17.4727L83.6355 22.1206L91.3247 7.47266H74.7812V17.4727ZM0.855469 17.4727H-9.14453V27.4727H0.855469V17.4727ZM0.855469 0.285156V-9.71484H-9.14453V0.285156H0.855469ZM100.66 0.285156H110.66V-9.71484H100.66V0.285156ZM100.66 8.09766L109.558 12.6614L110.66 10.5126V8.09766H100.66ZM36.5977 133V143H42.7073L45.4955 137.564L36.5977 133ZM14.1367 133L5.28251 128.352L-2.40671 143H14.1367V133ZM74.7812 7.47266H0.855469V27.4727H74.7812V7.47266ZM10.8555 17.4727V0.285156H-9.14453V17.4727H10.8555ZM0.855469 10.2852H100.66V-9.71484H0.855469V10.2852ZM90.6602 0.285156V8.09766H110.66V0.285156H90.6602ZM91.7623 3.53393L27.6998 128.436L45.4955 137.564L109.558 12.6614L91.7623 3.53393ZM36.5977 123H14.1367V143H36.5977V123ZM22.9909 137.648L83.6355 22.1206L65.927 12.8248L5.28251 128.352L22.9909 137.648Z" fill="#B4CD00" fill-opacity="0.6" mask="url(#path-1-outside-1_133_100)"/>
</svg>
