<svg width="150" height="180" viewBox="0 0 150 180" fill="none" xmlns="http://www.w3.org/2000/svg">
<mask id="path-1-outside-1_133_100" maskUnits="userSpaceOnUse" x="16" y="21" width="121" height="153" fill="black">
<rect fill="white" x="16" y="21" width="121" height="153"/>
<path d="M100.781 48.4727H26.8555V31.2852H126.66V39.0977L62.5977 164H40.1367L100.781 48.4727Z"/>
</mask>
<path d="M100.781 48.4727L109.635 53.1206L117.325 38.4727H100.781V48.4727ZM26.8555 48.4727H16.8555V58.4727H26.8555V48.4727ZM26.8555 31.2852V21.2852H16.8555V31.2852H26.8555ZM126.66 31.2852H136.66V21.2852H126.66V31.2852ZM126.66 39.0977L135.558 43.6614L136.66 41.5126V39.0977H126.66ZM62.5977 164V174H68.7073L71.4955 168.564L62.5977 164ZM40.1367 164L31.2825 159.352L23.5933 174H40.1367V164ZM100.781 38.4727H26.8555V58.4727H100.781V38.4727ZM36.8555 48.4727V31.2852H16.8555V48.4727H36.8555ZM26.8555 41.2852H126.66V21.2852H26.8555V41.2852ZM116.66 31.2852V39.0977H136.66V31.2852H116.66ZM117.762 34.5339L53.6998 159.436L71.4955 168.564L135.558 43.6614L117.762 34.5339ZM62.5977 154H40.1367V174H62.5977V154ZM48.9909 168.648L109.635 53.1206L91.927 43.8248L31.2825 159.352L48.9909 168.648Z" fill="#B4CD00" fill-opacity="0.6" mask="url(#path-1-outside-1_133_100)"/>
</svg>
