<svg width="103" height="136" viewBox="0 0 103 136" fill="none" xmlns="http://www.w3.org/2000/svg">
<mask id="path-1-outside-1_133_101" maskUnits="userSpaceOnUse" x="-10" y="-10" width="123" height="156" fill="black">
<rect fill="white" x="-10" y="-10" width="123" height="156"/>
<path d="M14.4023 125.113C9.97526 121.793 6.58984 117.789 4.24609 113.102C1.96745 108.414 0.828125 104.02 0.828125 99.918C0.828125 95.8164 1.2513 92.3333 2.09766 89.4688C3.00911 86.5391 4.3763 83.6094 6.19922 80.6797C10.431 74.0391 16.3555 69.026 23.9727 65.6406V65.3477C15.3138 60.7904 9.38932 53.987 6.19922 44.9375C5.15755 41.9427 4.63672 39.0781 4.63672 36.3438C4.63672 33.6094 4.99479 30.875 5.71094 28.1406C6.42708 25.4062 7.53385 22.737 9.03125 20.1328C10.5938 17.5286 12.612 15.0221 15.0859 12.6133C17.5599 10.2044 20.5221 8.08854 23.9727 6.26562C31.5898 2.29427 40.8672 0.308594 51.8047 0.308594C72.8984 0.308594 87.2539 6.91667 94.8711 20.1328C97.7357 25.1458 99.168 29.8008 99.168 34.0977C99.168 38.3294 98.6471 41.9427 97.6055 44.9375C96.5638 47.8672 95.1641 50.6016 93.4062 53.1406C89.8255 58.4141 85.3008 62.4831 79.832 65.3477V65.6406C87.4492 69.026 93.3737 74.0391 97.6055 80.6797C101.186 86.4089 102.977 92.0729 102.977 97.6719C102.977 103.271 101.805 108.414 99.4609 113.102C97.1823 117.789 93.8294 121.793 89.4023 125.113C80.2227 132.079 67.7227 135.562 51.9023 135.562C36.082 135.562 23.582 132.079 14.4023 125.113ZM51.9023 58.8047C55.9388 58.8047 59.6497 58.2188 63.0352 57.0469C66.4857 55.8099 69.4154 54.1823 71.8242 52.1641C76.9023 47.8021 79.4414 42.3659 79.4414 35.8555C79.4414 26.7409 74.5586 20.5234 64.793 17.2031C61.2773 16.0312 57.013 15.4453 52 15.4453C42.625 15.4453 35.4961 17.5938 30.6133 21.8906C26.5117 25.4714 24.4609 30.1263 24.4609 35.8555C24.4609 42.3659 27 47.8021 32.0781 52.1641C37.2865 56.5911 43.8945 58.8047 51.9023 58.8047ZM20.5547 98.1602C20.5547 101.676 21.4336 104.898 23.1914 107.828C25.0143 110.758 27.3906 113.167 30.3203 115.055C36.2448 118.961 43.4062 120.914 51.8047 120.914C65.6719 120.914 75.2747 116.552 80.6133 107.828C82.3711 104.898 83.25 101.676 83.25 98.1602C83.25 94.6445 82.6641 91.487 81.4922 88.6875C80.3203 85.8229 78.4648 83.2839 75.9258 81.0703C70.3919 76.2526 62.3841 73.8438 51.9023 73.8438C41.4206 73.8438 33.4128 76.2526 27.8789 81.0703C22.9961 85.3021 20.5547 90.9987 20.5547 98.1602Z"/>
</mask>
<path d="M14.4023 125.113L20.4474 117.147L20.4249 117.13L20.4023 117.113L14.4023 125.113ZM4.24609 113.102L-4.74759 117.473L-4.72316 117.524L-4.69818 117.574L4.24609 113.102ZM2.09766 89.4688L-7.45091 86.4981L-7.47221 86.5665L-7.49252 86.6353L2.09766 89.4688ZM6.19922 80.6797L-2.23399 75.3056L-2.26291 75.351L-2.29135 75.3967L6.19922 80.6797ZM23.9727 65.6406L28.034 74.7787L33.9727 72.1394V65.6406H23.9727ZM23.9727 65.3477H33.9727V59.3103L28.6301 56.4985L23.9727 65.3477ZM6.19922 44.9375L-3.24575 48.2227L-3.23888 48.2424L-3.23194 48.2622L6.19922 44.9375ZM9.03125 20.1328L0.45632 14.9879L0.40851 15.0675L0.362186 15.1481L9.03125 20.1328ZM23.9727 6.26562L19.3496 -2.60157L19.3255 -2.58901L19.3014 -2.57631L23.9727 6.26562ZM94.8711 20.1328L103.554 15.1714L103.544 15.1553L103.535 15.1393L94.8711 20.1328ZM97.6055 44.9375L107.028 48.2876L107.039 48.2552L107.05 48.2227L97.6055 44.9375ZM93.4062 53.1406L85.1843 47.4485L85.1586 47.4857L85.1332 47.5231L93.4062 53.1406ZM79.832 65.3477L75.192 56.4893L69.832 59.2969V65.3477H79.832ZM79.832 65.6406H69.832V72.1394L75.7706 74.7787L79.832 65.6406ZM97.6055 80.6797L106.085 75.3797L106.062 75.3425L106.039 75.3056L97.6055 80.6797ZM99.4609 113.102L90.5167 108.629L90.4917 108.679L90.4673 108.73L99.4609 113.102ZM89.4023 125.113L83.4023 117.113L83.3797 117.13L83.3572 117.147L89.4023 125.113ZM63.0352 57.0469L66.3063 66.4967L66.3581 66.4788L66.4098 66.4603L63.0352 57.0469ZM71.8242 52.1641L78.2464 59.8293L78.2935 59.7898L78.3401 59.7498L71.8242 52.1641ZM64.793 17.2031L68.012 7.7354L67.9837 7.72576L67.9552 7.71629L64.793 17.2031ZM30.6133 21.8906L37.1899 29.4238L37.2047 29.4108L37.2196 29.3978L30.6133 21.8906ZM32.0781 52.1641L25.5622 59.7498L25.5819 59.7667L25.6016 59.7835L32.0781 52.1641ZM23.1914 107.828L14.6165 112.973L14.6581 113.042L14.7008 113.111L23.1914 107.828ZM30.3203 115.055L35.8249 106.706L35.7813 106.677L35.7373 106.649L30.3203 115.055ZM80.6133 107.828L89.143 113.048L89.1657 113.011L89.1882 112.973L80.6133 107.828ZM81.4922 88.6875L72.2367 92.4738L72.2521 92.5114L72.2678 92.5489L81.4922 88.6875ZM75.9258 81.0703L82.4971 73.5326L82.492 73.5281L75.9258 81.0703ZM27.8789 81.0703L34.4282 88.6272L34.4367 88.6199L34.4451 88.6125L27.8789 81.0703ZM20.4023 117.113C17.1459 114.671 14.801 111.851 13.1904 108.629L-4.69818 117.574C-1.62135 123.727 2.80463 128.915 8.40234 133.113L20.4023 117.113ZM13.2398 108.73C11.4495 105.047 10.8281 102.152 10.8281 99.918H-9.17188C-9.17188 105.887 -7.51458 111.781 -4.74759 117.473L13.2398 108.73ZM10.8281 99.918C10.8281 96.4453 11.1932 93.9762 11.6878 92.3022L-7.49252 86.6353C-8.69064 90.6905 -9.17188 95.1875 -9.17188 99.918H10.8281ZM11.6462 92.4394C12.2757 90.4161 13.2615 88.2581 14.6898 85.9627L-2.29135 75.3967C-4.50894 78.9607 -6.25748 82.6621 -7.45091 86.4981L11.6462 92.4394ZM14.6324 86.0538C17.7451 81.1693 22.1016 77.4154 28.034 74.7787L19.9113 56.5025C10.6093 60.6367 3.11688 66.9088 -2.23399 75.3056L14.6324 86.0538ZM33.9727 65.6406V65.3477H13.9727V65.6406H33.9727ZM28.6301 56.4985C22.1531 53.0895 17.9642 48.2334 15.6304 41.6128L-3.23194 48.2622C0.814405 59.7406 8.47455 68.4912 19.3152 74.1968L28.6301 56.4985ZM15.6442 41.6523C14.9124 39.5485 14.6367 37.7971 14.6367 36.3438H-5.36328C-5.36328 40.3591 -4.59732 44.3369 -3.24575 48.2227L15.6442 41.6523ZM14.6367 36.3438C14.6367 34.4929 14.8778 32.6095 15.3847 30.6742L-3.96278 25.607C-4.88822 29.1405 -5.36328 32.7259 -5.36328 36.3438H14.6367ZM15.3847 30.6742C15.8625 28.8499 16.6173 27.0009 17.7003 25.1175L0.362186 15.1481C-1.54964 18.473 -3.00829 21.9626 -3.96278 25.607L15.3847 30.6742ZM17.6062 25.2778C18.6693 23.5059 20.1231 21.6659 22.0621 19.778L8.10977 5.44857C5.10081 8.37834 2.51818 11.5514 0.45632 14.9879L17.6062 25.2778ZM22.0621 19.778C23.7694 18.1156 25.9298 16.5414 28.6439 15.1076L19.3014 -2.57631C15.1145 -0.364319 11.3503 2.29327 8.10977 5.44857L22.0621 19.778ZM28.5957 15.1328C34.4487 12.0813 42.0485 10.3086 51.8047 10.3086V-9.69141C39.6859 -9.69141 28.731 -7.49273 19.3496 -2.60157L28.5957 15.1328ZM51.8047 10.3086C70.8607 10.3086 81.0291 16.1423 86.2071 25.1263L103.535 15.1393C93.4787 -2.30898 74.9362 -9.69141 51.8047 -9.69141V10.3086ZM86.1887 25.0942C88.4757 29.0965 89.168 32.0386 89.168 34.0977H109.168C109.168 27.563 106.996 21.1951 103.554 15.1714L86.1887 25.0942ZM89.168 34.0977C89.168 37.5618 88.7349 40.0009 88.1605 41.6523L107.05 48.2227C108.559 43.8846 109.168 39.097 109.168 34.0977H89.168ZM88.1833 41.5874C87.4348 43.6927 86.4372 45.6389 85.1843 47.4485L101.628 58.8327C103.891 55.5643 105.693 52.0416 107.028 48.2876L88.1833 41.5874ZM85.1332 47.5231C82.4468 51.4795 79.1528 54.4146 75.192 56.4893L84.4721 74.206C91.4488 70.5515 97.2043 65.3486 101.679 58.7581L85.1332 47.5231ZM69.832 65.3477V65.6406H89.832V65.3477H69.832ZM75.7706 74.7787C81.7031 77.4154 86.0596 81.1693 89.1723 86.0538L106.039 75.3056C100.688 66.9088 93.1954 60.6367 83.8934 56.5025L75.7706 74.7787ZM89.1255 85.9797C91.9195 90.4501 92.9766 94.3021 92.9766 97.6719H112.977C112.977 89.8437 110.453 82.3676 106.085 75.3797L89.1255 85.9797ZM92.9766 97.6719C92.9766 101.827 92.1191 105.424 90.5167 108.629L108.405 117.574C111.49 111.404 112.977 104.715 112.977 97.6719H92.9766ZM90.4673 108.73C88.9267 111.899 86.638 114.687 83.4023 117.113L95.4023 133.113C101.021 128.899 105.438 123.679 108.455 117.473L90.4673 108.73ZM83.3572 117.147C76.4618 122.38 66.3407 125.562 51.9023 125.562V145.562C69.1046 145.562 83.9835 141.779 95.4474 133.079L83.3572 117.147ZM51.9023 125.562C37.464 125.562 27.3429 122.38 20.4474 117.147L8.35724 133.079C19.8212 141.779 34.7001 145.562 51.9023 145.562V125.562ZM51.9023 68.8047C56.9127 68.8047 61.7445 68.0758 66.3063 66.4967L59.764 47.597C57.555 48.3617 54.9649 48.8047 51.9023 48.8047V68.8047ZM66.4098 66.4603C70.7899 64.89 74.796 62.7202 78.2464 59.8293L65.402 44.4989C64.0347 45.6444 62.1814 46.7298 59.6605 47.6335L66.4098 66.4603ZM78.3401 59.7498C85.5582 53.5496 89.4414 45.3747 89.4414 35.8555H69.4414C69.4414 39.3571 68.2465 42.0546 65.3083 44.5784L78.3401 59.7498ZM89.4414 35.8555C89.4414 29.417 87.6751 23.313 83.6439 18.18C79.6908 13.1465 74.1788 9.8321 68.012 7.7354L61.5739 26.6709C65.1728 27.8945 66.9849 29.349 67.9147 30.5328C68.7663 31.6173 69.4414 33.1794 69.4414 35.8555H89.4414ZM67.9552 7.71629C63.1316 6.10842 57.7347 5.44531 52 5.44531V25.4453C56.2914 25.4453 59.4231 25.9541 61.6307 26.69L67.9552 7.71629ZM52 5.44531C41.2506 5.44531 31.3779 7.89707 24.007 14.3835L37.2196 29.3978C39.6143 27.2904 43.9994 25.4453 52 25.4453V5.44531ZM24.0367 14.3575C17.6339 19.9472 14.4609 27.4104 14.4609 35.8555H34.4609C34.4609 32.8422 35.3896 30.9955 37.1899 29.4238L24.0367 14.3575ZM14.4609 35.8555C14.4609 45.3747 18.3441 53.5496 25.5622 59.7498L38.594 44.5784C35.6559 42.0546 34.4609 39.3571 34.4609 35.8555H14.4609ZM25.6016 59.7835C32.9196 66.0038 41.9501 68.8047 51.9023 68.8047V48.8047C45.839 48.8047 41.6533 47.1785 38.5546 44.5447L25.6016 59.7835ZM10.5547 98.1602C10.5547 103.433 11.8982 108.443 14.6165 112.973L31.7663 102.683C30.969 101.354 30.5547 99.9185 30.5547 98.1602H10.5547ZM14.7008 113.111C17.313 117.309 20.7438 120.78 24.9033 123.46L35.7373 106.649C34.0374 105.553 32.7157 104.206 31.682 102.545L14.7008 113.111ZM24.8157 123.403C32.6545 128.572 41.8149 130.914 51.8047 130.914V110.914C44.9976 110.914 39.835 109.35 35.8249 106.706L24.8157 123.403ZM51.8047 130.914C67.767 130.914 81.365 125.758 89.143 113.048L72.0836 102.608C69.1845 107.346 63.5768 110.914 51.8047 110.914V130.914ZM89.1882 112.973C91.9065 108.443 93.25 103.433 93.25 98.1602H73.25C73.25 99.9185 72.8357 101.354 72.0384 102.683L89.1882 112.973ZM93.25 98.1602C93.25 93.5265 92.475 89.0267 90.7166 84.8261L72.2678 92.5489C72.8531 93.9473 73.25 95.7625 73.25 98.1602H93.25ZM90.7477 84.9012C88.9347 80.4695 86.1053 76.6781 82.4971 73.5326L69.3544 88.608C70.8244 89.8896 71.7059 91.1763 72.2367 92.4738L90.7477 84.9012ZM82.492 73.5281C74.4923 66.5637 63.7766 63.8438 51.9023 63.8438V83.8438C60.9916 83.8438 66.2915 85.9415 69.3596 88.6125L82.492 73.5281ZM51.9023 63.8438C40.0281 63.8438 29.3123 66.5637 21.3127 73.5281L34.4451 88.6125C37.5132 85.9415 42.8131 83.8438 51.9023 83.8438V63.8438ZM21.3296 73.5134C14.002 79.864 10.5547 88.4512 10.5547 98.1602H30.5547C30.5547 93.5462 31.9902 90.7402 34.4282 88.6272L21.3296 73.5134Z" fill="#B4CD00" fill-opacity="0.6" mask="url(#path-1-outside-1_133_101)"/>
</svg>
