<svg width="150" height="180" viewBox="0 0 150 180" fill="none" xmlns="http://www.w3.org/2000/svg">
<mask id="path-1-outside-1_133_101" maskUnits="userSpaceOnUse" x="13" y="20" width="123" height="156" fill="black">
<rect fill="white" x="13" y="20" width="123" height="156"/>
<path d="M37.4023 155.113C32.9753 151.793 29.5898 147.789 27.2461 143.102C24.9674 138.414 23.8281 134.02 23.8281 129.918C23.8281 125.816 24.2513 122.333 25.0977 119.469C26.0091 116.539 27.3763 113.609 29.1992 110.68C33.431 104.039 39.3555 99.026 46.9727 95.6406V95.3477C38.3138 90.7904 32.3893 83.987 29.1992 74.9375C28.1576 71.9427 27.6367 69.0781 27.6367 66.3438C27.6367 63.6094 27.9948 60.875 28.7109 58.1406C29.4271 55.4062 30.5339 52.737 32.0312 50.1328C33.5938 47.5286 35.612 45.0221 38.0859 42.6133C40.5599 40.2044 43.5221 38.0885 46.9727 36.2656C54.5898 32.2943 63.8672 30.3086 74.8047 30.3086C95.8984 30.3086 110.254 36.9167 117.871 50.1328C120.736 55.1458 122.168 59.8008 122.168 64.0977C122.168 68.3294 121.647 71.9427 120.605 74.9375C119.564 77.8672 118.164 80.6016 116.406 83.1406C112.826 88.4141 108.301 92.4831 102.832 95.3477V95.6406C110.449 99.026 116.374 104.039 120.605 110.68C124.186 116.409 125.977 122.073 125.977 127.672C125.977 133.271 124.805 138.414 122.461 143.102C120.182 147.789 116.829 151.793 112.402 155.113C103.223 162.079 90.7227 165.562 74.9023 165.562C59.082 165.562 46.582 162.079 37.4023 155.113ZM74.9023 88.8047C78.9388 88.8047 82.6497 88.2188 86.0352 87.0469C89.4857 85.8099 92.4154 84.1823 94.8242 82.1641C99.9023 77.8021 102.441 72.3659 102.441 65.8555C102.441 56.7409 97.5586 50.5234 87.793 47.2031C84.2773 46.0312 80.013 45.4453 75 45.4453C65.625 45.4453 58.4961 47.5938 53.6133 51.8906C49.5117 55.4714 47.4609 60.1263 47.4609 65.8555C47.4609 72.3659 50 77.8021 55.0781 82.1641C60.2865 86.5911 66.8945 88.8047 74.9023 88.8047ZM43.5547 128.16C43.5547 131.676 44.4336 134.898 46.1914 137.828C48.0143 140.758 50.3906 143.167 53.3203 145.055C59.2448 148.961 66.4062 150.914 74.8047 150.914C88.6719 150.914 98.2747 146.552 103.613 137.828C105.371 134.898 106.25 131.676 106.25 128.16C106.25 124.645 105.664 121.487 104.492 118.688C103.32 115.823 101.465 113.284 98.9258 111.07C93.3919 106.253 85.3841 103.844 74.9023 103.844C64.4206 103.844 56.4128 106.253 50.8789 111.07C45.9961 115.302 43.5547 120.999 43.5547 128.16Z"/>
</mask>
<path d="M37.4023 155.113L43.4474 147.147L43.4249 147.13L43.4023 147.113L37.4023 155.113ZM27.2461 143.102L18.2524 147.473L18.2768 147.524L18.3018 147.574L27.2461 143.102ZM25.0977 119.469L15.5491 116.498L15.5278 116.567L15.5075 116.635L25.0977 119.469ZM29.1992 110.68L20.766 105.306L20.7371 105.351L20.7087 105.397L29.1992 110.68ZM46.9727 95.6406L51.034 104.779L56.9727 102.139V95.6406H46.9727ZM46.9727 95.3477H56.9727V89.3103L51.6301 86.4985L46.9727 95.3477ZM29.1992 74.9375L19.7543 78.2227L19.7611 78.2424L19.7681 78.2622L29.1992 74.9375ZM32.0312 50.1328L23.4563 44.9879L23.4085 45.0675L23.3622 45.1481L32.0312 50.1328ZM46.9727 36.2656L42.3496 27.3984L42.3255 27.411L42.3014 27.4237L46.9727 36.2656ZM117.871 50.1328L126.554 45.1714L126.544 45.1553L126.535 45.1393L117.871 50.1328ZM120.605 74.9375L130.028 78.2876L130.039 78.2552L130.05 78.2227L120.605 74.9375ZM116.406 83.1406L108.184 77.4485L108.159 77.4857L108.133 77.5231L116.406 83.1406ZM102.832 95.3477L98.192 86.4893L92.832 89.2969V95.3477H102.832ZM102.832 95.6406H92.832V102.139L98.7706 104.779L102.832 95.6406ZM120.605 110.68L129.085 105.38L129.062 105.343L129.039 105.306L120.605 110.68ZM122.461 143.102L113.517 138.629L113.492 138.679L113.467 138.73L122.461 143.102ZM112.402 155.113L106.402 147.113L106.38 147.13L106.357 147.147L112.402 155.113ZM86.0352 87.0469L89.3063 96.4967L89.3581 96.4788L89.4098 96.4603L86.0352 87.0469ZM94.8242 82.1641L101.246 89.8293L101.294 89.7898L101.34 89.7498L94.8242 82.1641ZM87.793 47.2031L91.012 37.7354L90.9837 37.7258L90.9552 37.7163L87.793 47.2031ZM53.6133 51.8906L60.1899 59.4238L60.2047 59.4108L60.2196 59.3978L53.6133 51.8906ZM55.0781 82.1641L48.5622 89.7498L48.5819 89.7667L48.6016 89.7835L55.0781 82.1641ZM46.1914 137.828L37.6165 142.973L37.6581 143.042L37.7008 143.111L46.1914 137.828ZM53.3203 145.055L58.8249 136.706L58.7813 136.677L58.7373 136.649L53.3203 145.055ZM103.613 137.828L112.143 143.048L112.166 143.011L112.188 142.973L103.613 137.828ZM104.492 118.688L95.2367 122.474L95.2521 122.511L95.2678 122.549L104.492 118.688ZM98.9258 111.07L105.497 103.533L105.492 103.528L98.9258 111.07ZM50.8789 111.07L57.4282 118.627L57.4367 118.62L57.4451 118.613L50.8789 111.07ZM43.4023 147.113C40.1459 144.671 37.801 141.851 36.1904 138.629L18.3018 147.574C21.3787 153.727 25.8046 158.915 31.4023 163.113L43.4023 147.113ZM36.2398 138.73C34.4495 135.047 33.8281 132.152 33.8281 129.918H13.8281C13.8281 135.887 15.4854 141.781 18.2524 147.473L36.2398 138.73ZM33.8281 129.918C33.8281 126.445 34.1932 123.976 34.6878 122.302L15.5075 116.635C14.3094 120.69 13.8281 125.188 13.8281 129.918H33.8281ZM34.6462 122.439C35.2757 120.416 36.2615 118.258 37.6898 115.963L20.7087 105.397C18.4911 108.961 16.7425 112.662 15.5491 116.498L34.6462 122.439ZM37.6324 116.054C40.7451 111.169 45.1016 107.415 51.034 104.779L42.9113 86.5025C33.6093 90.6367 26.1169 96.9088 20.766 105.306L37.6324 116.054ZM56.9727 95.6406V95.3477H36.9727V95.6406H56.9727ZM51.6301 86.4985C45.1531 83.0895 40.9642 78.2334 38.6304 71.6128L19.7681 78.2622C23.8144 89.7406 31.4745 98.4912 42.3152 104.197L51.6301 86.4985ZM38.6442 71.6523C37.9124 69.5485 37.6367 67.7971 37.6367 66.3438H17.6367C17.6367 70.3591 18.4027 74.3369 19.7543 78.2227L38.6442 71.6523ZM37.6367 66.3438C37.6367 64.4929 37.8778 62.6095 38.3847 60.6742L19.0372 55.607C18.1118 59.1405 17.6367 62.7259 17.6367 66.3438H37.6367ZM38.3847 60.6742C38.8625 58.8499 39.6173 57.0009 40.7003 55.1175L23.3622 45.1481C21.4504 48.473 19.9917 51.9626 19.0372 55.607L38.3847 60.6742ZM40.6062 55.2778C41.6693 53.5059 43.1231 51.6659 45.0621 49.778L31.1098 35.4486C28.1008 38.3783 25.5182 41.5514 23.4563 44.9879L40.6062 55.2778ZM45.0621 49.778C46.7694 48.1156 48.9298 46.5414 51.6439 45.1076L42.3014 27.4237C38.1145 29.6357 34.3503 32.2933 31.1098 35.4486L45.0621 49.778ZM51.5957 45.1328C57.4487 42.0813 65.0485 40.3086 74.8047 40.3086V20.3086C62.6859 20.3086 51.731 22.5073 42.3496 27.3984L51.5957 45.1328ZM74.8047 40.3086C93.8607 40.3086 104.029 46.1423 109.207 55.1263L126.535 45.1393C116.479 27.691 97.9361 20.3086 74.8047 20.3086V40.3086ZM109.189 55.0942C111.476 59.0965 112.168 62.0386 112.168 64.0977H132.168C132.168 57.563 129.996 51.1951 126.554 45.1714L109.189 55.0942ZM112.168 64.0977C112.168 67.5618 111.735 70.0009 111.16 71.6523L130.05 78.2227C131.559 73.8846 132.168 69.097 132.168 64.0977H112.168ZM111.183 71.5874C110.435 73.6927 109.437 75.6389 108.184 77.4485L124.628 88.8327C126.891 85.5643 128.693 82.0416 130.028 78.2876L111.183 71.5874ZM108.133 77.5231C105.447 81.4795 102.153 84.4146 98.192 86.4893L107.472 104.206C114.449 100.552 120.204 95.3486 124.679 88.7581L108.133 77.5231ZM92.832 95.3477V95.6406H112.832V95.3477H92.832ZM98.7706 104.779C104.703 107.415 109.06 111.169 112.172 116.054L129.039 105.306C123.688 96.9088 116.195 90.6367 106.893 86.5025L98.7706 104.779ZM112.125 115.98C114.92 120.45 115.977 124.302 115.977 127.672H135.977C135.977 119.844 133.453 112.368 129.085 105.38L112.125 115.98ZM115.977 127.672C115.977 131.827 115.119 135.424 113.517 138.629L131.405 147.574C134.49 141.404 135.977 134.715 135.977 127.672H115.977ZM113.467 138.73C111.927 141.899 109.638 144.687 106.402 147.113L118.402 163.113C124.021 158.899 128.438 153.679 131.455 147.473L113.467 138.73ZM106.357 147.147C99.4618 152.38 89.3407 155.562 74.9023 155.562V175.562C92.1046 175.562 106.984 171.779 118.447 163.079L106.357 147.147ZM74.9023 155.562C60.464 155.562 50.3429 152.38 43.4474 147.147L31.3572 163.079C42.8212 171.779 57.7001 175.562 74.9023 175.562V155.562ZM74.9023 98.8047C79.9127 98.8047 84.7445 98.0758 89.3063 96.4967L82.7641 77.597C80.555 78.3617 77.9649 78.8047 74.9023 78.8047V98.8047ZM89.4098 96.4603C93.7899 94.89 97.796 92.7202 101.246 89.8293L88.402 74.4989C87.0347 75.6444 85.1814 76.7298 82.6605 77.6335L89.4098 96.4603ZM101.34 89.7498C108.558 83.5496 112.441 75.3747 112.441 65.8555H92.4414C92.4414 69.3571 91.2465 72.0546 88.3083 74.5784L101.34 89.7498ZM112.441 65.8555C112.441 59.417 110.675 53.313 106.644 48.18C102.691 43.1465 97.1788 39.8321 91.012 37.7354L84.5739 56.6709C88.1728 57.8945 89.9849 59.349 90.9147 60.5328C91.7663 61.6173 92.4414 63.1794 92.4414 65.8555H112.441ZM90.9552 37.7163C86.1316 36.1084 80.7347 35.4453 75 35.4453V55.4453C79.2914 55.4453 82.4231 55.9541 84.6307 56.69L90.9552 37.7163ZM75 35.4453C64.2506 35.4453 54.3779 37.8971 47.007 44.3835L60.2196 59.3978C62.6143 57.2904 66.9994 55.4453 75 55.4453V35.4453ZM47.0367 44.3575C40.6339 49.9472 37.4609 57.4104 37.4609 65.8555H57.4609C57.4609 62.8422 58.3896 60.9955 60.1899 59.4238L47.0367 44.3575ZM37.4609 65.8555C37.4609 75.3747 41.3441 83.5496 48.5622 89.7498L61.594 74.5784C58.6559 72.0546 57.4609 69.3571 57.4609 65.8555H37.4609ZM48.6016 89.7835C55.9196 96.0038 64.9501 98.8047 74.9023 98.8047V78.8047C68.839 78.8047 64.6533 77.1785 61.5546 74.5447L48.6016 89.7835ZM33.5547 128.16C33.5547 133.433 34.8982 138.443 37.6165 142.973L54.7663 132.683C53.969 131.354 53.5547 129.918 53.5547 128.16H33.5547ZM37.7008 143.111C40.313 147.309 43.7438 150.78 47.9033 153.46L58.7373 136.649C57.0374 135.553 55.7157 134.206 54.682 132.545L37.7008 143.111ZM47.8157 153.403C55.6545 158.572 64.8149 160.914 74.8047 160.914V140.914C67.9976 140.914 62.835 139.35 58.8249 136.706L47.8157 153.403ZM74.8047 160.914C90.767 160.914 104.365 155.758 112.143 143.048L95.0836 132.608C92.1845 137.346 86.5768 140.914 74.8047 140.914V160.914ZM112.188 142.973C114.906 138.443 116.25 133.433 116.25 128.16H96.25C96.25 129.918 95.8357 131.354 95.0384 132.683L112.188 142.973ZM116.25 128.16C116.25 123.527 115.475 119.027 113.717 114.826L95.2678 122.549C95.8531 123.947 96.25 125.763 96.25 128.16H116.25ZM113.748 114.901C111.935 110.47 109.105 106.678 105.497 103.533L92.3544 118.608C93.8244 119.89 94.7059 121.176 95.2367 122.474L113.748 114.901ZM105.492 103.528C97.4923 96.5637 86.7766 93.8438 74.9023 93.8438V113.844C83.9916 113.844 89.2915 115.942 92.3596 118.613L105.492 103.528ZM74.9023 93.8438C63.0281 93.8438 52.3123 96.5637 44.3127 103.528L57.4451 118.613C60.5132 115.942 65.8131 113.844 74.9023 113.844V93.8438ZM44.3296 103.513C37.002 109.864 33.5547 118.451 33.5547 128.16H53.5547C53.5547 123.546 54.9902 120.74 57.4282 118.627L44.3296 103.513Z" fill="#B4CD00" fill-opacity="0.6" mask="url(#path-1-outside-1_133_101)"/>
</svg>
