<svg width="105" height="135" viewBox="0 0 105 135" fill="none" xmlns="http://www.w3.org/2000/svg">
<mask id="path-1-outside-1_133_104" maskUnits="userSpaceOnUse" x="-10" y="-10" width="125" height="155" fill="black">
<rect fill="white" x="-10" y="-10" width="125" height="155"/>
<path d="M12.5938 114.641C18.8438 116.594 26.4284 117.57 35.3477 117.57C44.2669 117.57 51.7865 116.464 57.9062 114.25C64.026 111.971 69.1042 108.814 73.1406 104.777C81.0833 96.8997 85.0547 86.1576 85.0547 72.5508C77.5026 78.0846 68.5182 81.8607 58.1016 83.8789C54.4557 84.5299 49.9635 84.8555 44.625 84.8555C39.2865 84.8555 33.7526 83.9766 28.0234 82.2188C22.3594 80.3958 17.4766 77.7591 13.375 74.3086C4.84635 66.9518 0.582031 56.6003 0.582031 43.2539C0.582031 29.3867 6.01823 18.5469 16.8906 10.7344C26.5911 3.76823 38.1797 0.285156 51.6562 0.285156C68.9089 0.285156 82.125 5.94922 91.3047 17.2773C100.159 28.0846 104.586 43.1237 104.586 62.3945V68.3516C104.586 88.4036 98.2708 104.517 85.6406 116.691C73.1406 128.671 56.6367 134.66 36.1289 134.66H30.1719C22.3594 134.66 16.5 134.302 12.5938 133.586V114.641ZM84.8594 57.8047C84.8594 38.2734 78.707 25.2201 66.4023 18.6445C62.1055 16.3008 57.3529 15.1289 52.1445 15.1289C46.9362 15.1289 42.4115 15.7474 38.5703 16.9844C34.7943 18.1562 31.474 19.8815 28.6094 22.1602C22.5547 27.1732 19.5273 33.8789 19.5273 42.2773C19.5273 50.6758 22.3919 57.3815 28.1211 62.3945C33.8503 67.3424 41.5977 69.8164 51.3633 69.8164C61.4544 69.8164 70.862 67.1471 79.5859 61.8086C81.8646 60.3763 83.6224 59.0417 84.8594 57.8047Z"/>
</mask>
<path d="M12.5938 114.641L15.5765 105.096L2.59375 101.039V114.641H12.5938ZM57.9062 114.25L61.3076 123.654L61.3517 123.638L61.3956 123.621L57.9062 114.25ZM73.1406 104.777L66.0987 97.6772L66.0841 97.6917L66.0696 97.7063L73.1406 104.777ZM85.0547 72.5508H95.0547V52.8259L79.1441 64.4845L85.0547 72.5508ZM58.1016 83.8789L59.8595 93.7232L59.9317 93.7103L60.0037 93.6963L58.1016 83.8789ZM28.0234 82.2188L24.9598 91.7379L25.0249 91.7588L25.0902 91.7789L28.0234 82.2188ZM13.375 74.3086L6.84332 81.8807L6.8901 81.9211L6.93738 81.9609L13.375 74.3086ZM16.8906 10.7344L11.0576 2.6118L11.0553 2.6135L16.8906 10.7344ZM91.3047 17.2773L83.5354 23.5732L83.5523 23.594L83.5693 23.6148L91.3047 17.2773ZM85.6406 116.691L92.5597 123.911L92.5702 123.901L92.5806 123.891L85.6406 116.691ZM12.5938 133.586H2.59375V141.919L10.7905 143.422L12.5938 133.586ZM84.8594 57.8047L91.9304 64.8758L94.8594 61.9468V57.8047H84.8594ZM66.4023 18.6445L61.6138 27.4235L61.6514 27.444L61.6892 27.4642L66.4023 18.6445ZM38.5703 16.9844L41.5343 26.535L41.5851 26.5193L41.6356 26.503L38.5703 16.9844ZM28.6094 22.1602L22.3841 14.3341L22.3075 14.3951L22.232 14.4576L28.6094 22.1602ZM28.1211 62.3945L21.536 69.9203L21.5604 69.9416L21.5849 69.9628L28.1211 62.3945ZM79.5859 61.8086L84.8056 70.3383L84.8568 70.3069L84.9077 70.275L79.5859 61.8086ZM9.611 124.185C17.1045 126.527 25.7565 127.57 35.3477 127.57V107.57C27.1003 107.57 20.583 106.66 15.5765 105.096L9.611 124.185ZM35.3477 127.57C45.027 127.57 53.7758 126.378 61.3076 123.654L54.5049 104.846C49.7972 106.549 43.5069 107.57 35.3477 107.57V127.57ZM61.3956 123.621C68.6673 120.914 75.0239 117.036 80.2117 111.848L66.0696 97.7063C63.1845 100.591 59.3848 103.029 54.4169 104.879L61.3956 123.621ZM80.1825 111.877C90.4148 101.729 95.0547 88.2085 95.0547 72.5508H75.0547C75.0547 84.1067 71.7519 92.0704 66.0987 97.6772L80.1825 111.877ZM79.1441 64.4845C72.932 69.0364 65.3608 72.2865 56.1994 74.0615L60.0037 93.6963C71.6757 91.4349 82.0732 87.1328 90.9653 80.617L79.1441 64.4845ZM56.3437 74.0346C53.47 74.5478 49.6079 74.8555 44.625 74.8555V94.8555C50.3192 94.8555 55.4414 94.5121 59.8595 93.7232L56.3437 74.0346ZM44.625 74.8555C40.394 74.8555 35.8502 74.16 30.9567 72.6586L25.0902 91.7789C31.655 93.7931 38.1789 94.8555 44.625 94.8555V74.8555ZM31.0871 72.6996C26.522 71.2304 22.8174 69.1842 19.8126 66.6563L6.93738 81.9609C12.1357 86.334 18.1967 89.5613 24.9598 91.7379L31.0871 72.6996ZM19.9067 66.7365C13.9923 61.6347 10.582 54.2842 10.582 43.2539H-9.41797C-9.41797 58.9163 -4.29956 72.2689 6.84332 81.8807L19.9067 66.7365ZM10.582 43.2539C10.582 32.47 14.5768 24.7109 22.726 18.8552L11.0553 2.6135C-2.54038 12.3828 -9.41797 26.3034 -9.41797 43.2539H10.582ZM22.7236 18.8569C30.5099 13.2654 39.9924 10.2852 51.6562 10.2852V-9.71484C36.367 -9.71484 22.6724 -5.729 11.0576 2.6118L22.7236 18.8569ZM51.6562 10.2852C66.5085 10.2852 76.6107 15.0278 83.5354 23.5732L99.074 10.9815C87.6393 -3.12937 71.3093 -9.71484 51.6562 -9.71484V10.2852ZM83.5693 23.6148C90.4893 32.0614 94.5859 44.5649 94.5859 62.3945H114.586C114.586 41.6825 109.828 24.1079 99.0401 10.9399L83.5693 23.6148ZM94.5859 62.3945V68.3516H114.586V62.3945H94.5859ZM94.5859 68.3516C94.5859 86.1123 89.0895 99.4776 78.7006 109.492L92.5806 123.891C107.452 109.556 114.586 90.6949 114.586 68.3516H94.5859ZM78.7216 109.472C68.4203 119.344 54.5662 124.66 36.1289 124.66V144.66C58.7073 144.66 77.861 137.998 92.5597 123.911L78.7216 109.472ZM36.1289 124.66H30.1719V144.66H36.1289V124.66ZM30.1719 124.66C22.503 124.66 17.3819 124.297 14.397 123.75L10.7905 143.422C15.6181 144.307 22.2157 144.66 30.1719 144.66V124.66ZM22.5938 133.586V114.641H2.59375V133.586H22.5938ZM94.8594 57.8047C94.8594 36.2569 87.9243 18.8074 71.1155 9.82488L61.6892 27.4642C69.4897 31.6327 74.8594 40.29 74.8594 57.8047H94.8594ZM71.1909 9.86558C65.3309 6.66924 58.9154 5.12891 52.1445 5.12891V25.1289C55.7904 25.1289 58.88 25.9323 61.6138 27.4235L71.1909 9.86558ZM52.1445 5.12891C46.1816 5.12891 40.5764 5.83262 35.505 7.46577L41.6356 26.503C44.2466 25.6622 47.6908 25.1289 52.1445 25.1289V5.12891ZM35.6063 7.43373C30.7411 8.94362 26.2947 11.2234 22.3841 14.3341L34.8346 29.9862C36.6532 28.5396 38.8474 27.3689 41.5343 26.535L35.6063 7.43373ZM22.232 14.4576C13.7092 21.5142 9.52734 31.133 9.52734 42.2773H29.5273C29.5273 36.6249 31.4002 32.8322 34.9867 29.8627L22.232 14.4576ZM9.52734 42.2773C9.52734 53.2255 13.3974 62.799 21.536 69.9203L34.7061 54.8688C31.3864 51.964 29.5273 48.1261 29.5273 42.2773H9.52734ZM21.5849 69.9628C29.6051 76.8893 39.9097 79.8164 51.3633 79.8164V59.8164C43.2856 59.8164 38.0954 57.7956 34.6573 54.8263L21.5849 69.9628ZM51.3633 79.8164C63.3227 79.8164 74.5328 76.6246 84.8056 70.3383L74.3663 53.2789C67.1911 57.6697 59.5862 59.8164 51.3633 59.8164V79.8164ZM84.9077 70.275C87.5198 68.6331 89.9619 66.8443 91.9304 64.8758L77.7883 50.7336C77.2829 51.239 76.2094 52.1195 74.2642 53.3422L84.9077 70.275Z" fill="#B4CD00" fill-opacity="0.6" mask="url(#path-1-outside-1_133_104)"/>
</svg>
