<svg width="150" height="180" viewBox="0 0 150 180" fill="none" xmlns="http://www.w3.org/2000/svg">
<mask id="path-1-outside-1_133_104" maskUnits="userSpaceOnUse" x="11" y="21" width="125" height="155" fill="black">
<rect fill="white" x="11" y="21" width="125" height="155"/>
<path d="M33.5938 145.641C39.8438 147.594 47.4284 148.57 56.3477 148.57C65.2669 148.57 72.7865 147.464 78.9062 145.25C85.026 142.971 90.1042 139.814 94.1406 135.777C102.083 127.9 106.055 117.158 106.055 103.551C98.5026 109.085 89.5182 112.861 79.1016 114.879C75.4557 115.53 70.9635 115.855 65.625 115.855C60.2865 115.855 54.7526 114.977 49.0234 113.219C43.3594 111.396 38.4766 108.759 34.375 105.309C25.8464 97.9518 21.582 87.6003 21.582 74.2539C21.582 60.3867 27.0182 49.5469 37.8906 41.7344C47.5911 34.7682 59.1797 31.2852 72.6562 31.2852C89.9089 31.2852 103.125 36.9492 112.305 48.2773C121.159 59.0846 125.586 74.1237 125.586 93.3945V99.3516C125.586 119.404 119.271 135.517 106.641 147.691C94.1406 159.671 77.6367 165.66 57.1289 165.66H51.1719C43.3594 165.66 37.5 165.302 33.5938 164.586V145.641ZM105.859 88.8047C105.859 69.2734 99.707 56.2201 87.4023 49.6445C83.1055 47.3008 78.3529 46.1289 73.1445 46.1289C67.9362 46.1289 63.4115 46.7474 59.5703 47.9844C55.7943 49.1562 52.474 50.8815 49.6094 53.1602C43.5547 58.1732 40.5273 64.8789 40.5273 73.2773C40.5273 81.6758 43.3919 88.3815 49.1211 93.3945C54.8503 98.3424 62.5977 100.816 72.3633 100.816C82.4544 100.816 91.862 98.1471 100.586 92.8086C102.865 91.3763 104.622 90.0417 105.859 88.8047Z"/>
</mask>
<path d="M33.5938 145.641L36.5765 136.096L23.5938 132.039V145.641H33.5938ZM78.9062 145.25L82.3076 154.654L82.3517 154.638L82.3956 154.621L78.9062 145.25ZM94.1406 135.777L87.0987 128.677L87.0841 128.692L87.0696 128.706L94.1406 135.777ZM106.055 103.551H116.055V83.8259L100.144 95.4845L106.055 103.551ZM79.1016 114.879L80.8595 124.723L80.9317 124.71L81.0037 124.696L79.1016 114.879ZM49.0234 113.219L45.9598 122.738L46.0249 122.759L46.0902 122.779L49.0234 113.219ZM34.375 105.309L27.8433 112.881L27.8901 112.921L27.9374 112.961L34.375 105.309ZM37.8906 41.7344L32.0576 33.6118L32.0553 33.6135L37.8906 41.7344ZM112.305 48.2773L104.535 54.5732L104.552 54.594L104.569 54.6148L112.305 48.2773ZM106.641 147.691L113.56 154.911L113.57 154.901L113.581 154.891L106.641 147.691ZM33.5938 164.586H23.5938V172.919L31.7905 174.422L33.5938 164.586ZM105.859 88.8047L112.93 95.8758L115.859 92.9468V88.8047H105.859ZM87.4023 49.6445L82.6138 58.4235L82.6514 58.444L82.6892 58.4642L87.4023 49.6445ZM59.5703 47.9844L62.5343 57.535L62.5851 57.5193L62.6356 57.503L59.5703 47.9844ZM49.6094 53.1602L43.3841 45.3341L43.3075 45.3951L43.232 45.4576L49.6094 53.1602ZM49.1211 93.3945L42.536 100.92L42.5604 100.942L42.5849 100.963L49.1211 93.3945ZM100.586 92.8086L105.806 101.338L105.857 101.307L105.908 101.275L100.586 92.8086ZM30.611 155.185C38.1045 157.527 46.7565 158.57 56.3477 158.57V138.57C48.1003 138.57 41.583 137.66 36.5765 136.096L30.611 155.185ZM56.3477 158.57C66.027 158.57 74.7758 157.378 82.3076 154.654L75.5049 135.846C70.7972 137.549 64.5069 138.57 56.3477 138.57V158.57ZM82.3956 154.621C89.6673 151.914 96.0239 148.036 101.212 142.848L87.0696 128.706C84.1845 131.591 80.3848 134.029 75.4169 135.879L82.3956 154.621ZM101.183 142.877C111.415 132.729 116.055 119.208 116.055 103.551H96.0547C96.0547 115.107 92.7519 123.07 87.0987 128.677L101.183 142.877ZM100.144 95.4845C93.932 100.036 86.3608 103.286 77.1994 105.061L81.0037 124.696C92.6757 122.435 103.073 118.133 111.965 111.617L100.144 95.4845ZM77.3437 105.035C74.47 105.548 70.6079 105.855 65.625 105.855V125.855C71.3192 125.855 76.4414 125.512 80.8595 124.723L77.3437 105.035ZM65.625 105.855C61.394 105.855 56.8502 105.16 51.9567 103.659L46.0902 122.779C52.655 124.793 59.1789 125.855 65.625 125.855V105.855ZM52.0871 103.7C47.522 102.23 43.8174 100.184 40.8126 97.6563L27.9374 112.961C33.1357 117.334 39.1967 120.561 45.9598 122.738L52.0871 103.7ZM40.9067 97.7365C34.9923 92.6347 31.582 85.2842 31.582 74.2539H11.582C11.582 89.9163 16.7004 103.269 27.8433 112.881L40.9067 97.7365ZM31.582 74.2539C31.582 63.47 35.5768 55.7109 43.726 49.8552L32.0553 33.6135C18.4596 43.3828 11.582 57.3034 11.582 74.2539H31.582ZM43.7236 49.857C51.5099 44.2655 60.9924 41.2852 72.6562 41.2852V21.2852C57.367 21.2852 43.6724 25.271 32.0576 33.6118L43.7236 49.857ZM72.6562 41.2852C87.5085 41.2852 97.6107 46.0278 104.535 54.5732L120.074 41.9815C108.639 27.8706 92.3093 21.2852 72.6562 21.2852V41.2852ZM104.569 54.6148C111.489 63.0614 115.586 75.5649 115.586 93.3945H135.586C135.586 72.6825 130.828 55.1079 120.04 41.9399L104.569 54.6148ZM115.586 93.3945V99.3516H135.586V93.3945H115.586ZM115.586 99.3516C115.586 117.112 110.09 130.478 99.7006 140.492L113.581 154.891C128.452 140.556 135.586 121.695 135.586 99.3516H115.586ZM99.7216 140.472C89.4203 150.344 75.5662 155.66 57.1289 155.66V175.66C79.7073 175.66 98.861 168.998 113.56 154.911L99.7216 140.472ZM57.1289 155.66H51.1719V175.66H57.1289V155.66ZM51.1719 155.66C43.503 155.66 38.3819 155.297 35.397 154.75L31.7905 174.422C36.6181 175.307 43.2157 175.66 51.1719 175.66V155.66ZM43.5938 164.586V145.641H23.5938V164.586H43.5938ZM115.859 88.8047C115.859 67.2569 108.924 49.8074 92.1155 40.8249L82.6892 58.4642C90.4897 62.6327 95.8594 71.29 95.8594 88.8047H115.859ZM92.1909 40.8656C86.3309 37.6692 79.9154 36.1289 73.1445 36.1289V56.1289C76.7904 56.1289 79.88 56.9323 82.6138 58.4235L92.1909 40.8656ZM73.1445 36.1289C67.1816 36.1289 61.5764 36.8326 56.505 38.4658L62.6356 57.503C65.2466 56.6622 68.6908 56.1289 73.1445 56.1289V36.1289ZM56.6063 38.4337C51.7411 39.9436 47.2947 42.2234 43.3841 45.3341L55.8346 60.9862C57.6532 59.5396 59.8474 58.3689 62.5343 57.535L56.6063 38.4337ZM43.232 45.4576C34.7092 52.5142 30.5273 62.133 30.5273 73.2773H50.5273C50.5273 67.6249 52.4002 63.8322 55.9867 60.8627L43.232 45.4576ZM30.5273 73.2773C30.5273 84.2255 34.3974 93.799 42.536 100.92L55.7061 85.8688C52.3864 82.964 50.5273 79.1261 50.5273 73.2773H30.5273ZM42.5849 100.963C50.6051 107.889 60.9097 110.816 72.3633 110.816V90.8164C64.2856 90.8164 59.0954 88.7956 55.6573 85.8263L42.5849 100.963ZM72.3633 110.816C84.3227 110.816 95.5328 107.625 105.806 101.338L95.3663 84.2789C88.1911 88.6697 80.5862 90.8164 72.3633 90.8164V110.816ZM105.908 101.275C108.52 99.6331 110.962 97.8443 112.93 95.8758L98.7883 81.7336C98.2829 82.239 97.2094 83.1195 95.2642 84.3422L105.908 101.275Z" fill="#B4CD00" fill-opacity="0.6" mask="url(#path-1-outside-1_133_104)"/>
</svg>
