<svg width="38" height="38" viewBox="0 0 38 38" fill="none" xmlns="http://www.w3.org/2000/svg">
<path d="M19.9999 20.0001L12 28L10.5858 26.5858L18.5857 18.5859L11.207 11.2071L12.6212 9.79289L19.9999 17.1716L27.5858 9.58579L29 11L21.4141 18.5859L29.6212 26.7929L28.207 28.2071L19.9999 20.0001Z" fill="#D3EF05"/>
<path fill-rule="evenodd" clip-rule="evenodd" d="M8 0C3.58172 0 0 3.58172 0 8V30C0 34.4183 3.58172 38 8 38H30C34.4183 38 38 34.4183 38 30V8C38 3.58172 34.4183 0 30 0H8ZM30 2H8C4.68629 2 2 4.68629 2 8V30C2 33.3137 4.68629 36 8 36H30C33.3137 36 36 33.3137 36 30V8C36 4.68629 33.3137 2 30 2Z" fill="#D3EF05"/>
</svg>
