<svg width="46" height="46" viewBox="0 0 46 46" fill="none" xmlns="http://www.w3.org/2000/svg">
<path d="M24.2104 24.2106L14.5263 33.8947L12.8144 32.1828L22.4985 22.4987L13.5663 13.5665L15.2783 11.8546L24.2104 20.7867L33.3933 11.6038L35.1053 13.3158L25.9224 22.4987L35.8572 32.4335L34.1453 34.1454L24.2104 24.2106Z" fill="#D3EF05"/>
<path fill-rule="evenodd" clip-rule="evenodd" d="M9.68421 0C4.33577 0 0 4.33577 0 9.68421V36.3158C0 41.6642 4.33577 46 9.68421 46H36.3158C41.6642 46 46 41.6642 46 36.3158V9.68421C46 4.33577 41.6642 0 36.3158 0H9.68421ZM36.3158 2.42105H9.68421C5.67288 2.42105 2.42105 5.67288 2.42105 9.68421V36.3158C2.42105 40.3271 5.67288 43.5789 9.68421 43.5789H36.3158C40.3271 43.5789 43.5789 40.3271 43.5789 36.3158V9.68421C43.5789 5.67288 40.3271 2.42105 36.3158 2.42105Z" fill="#D3EF05"/>
</svg>
