<svg width="373" height="2458" viewBox="0 0 373 2458" fill="none" xmlns="http://www.w3.org/2000/svg">
<path d="M2.54393 5L238.91 133.188C314.983 174.445 319.946 281.777 248.006 329.878L144.086 399.362C76.3619 444.643 75.897 544.045 143.194 589.958L266.989 674.416C333.941 720.094 333.9 818.844 266.909 864.466L141.993 949.534C75.002 995.156 74.9602 1093.91 141.913 1139.58L258.918 1219.41C327.985 1266.53 325.279 1369.27 253.826 1412.69L135.344 1484.68C65.7664 1526.96 60.9482 1626.17 126.101 1674.99L264.002 1778.33C330.79 1828.37 323.701 1930.66 250.647 1971.02L132.043 2036.53C62.6564 2074.86 51.9441 2170.25 111.101 2223.02L369.5 2453.5" stroke="#A5BC00" stroke-width="10"/>
</svg>
