<svg width="114" height="107" viewBox="0 0 114 107" fill="none" xmlns="http://www.w3.org/2000/svg">
<path d="M57 66.875C64.8703 66.875 71.25 60.887 71.25 53.5C71.25 46.113 64.8703 40.125 57 40.125C49.1297 40.125 42.75 46.113 42.75 53.5C42.75 60.887 49.1297 66.875 57 66.875Z" stroke="black" stroke-width="1.5" stroke-linecap="round" stroke-linejoin="round"/>
<path d="M93.2064 46.3462L87.9923 34.5289L95 26.75L85.5 17.8334L77.2573 24.4448L64.3996 19.4818L61.4427 8.91669H52.1597L49.1582 19.6217L36.5959 24.592L28.5 17.8334L19 26.75L25.9035 34.7253L20.7694 46.5731L9.5 49.0417V57.9584L20.9053 60.8808L26.1998 72.6695L19 80.25L28.5 89.1667L37.008 82.6589L49.3858 87.4382L52.25 98.0833H61.75L64.6214 87.4422L77.2117 82.5483C79.3103 83.9562 85.5 89.1667 85.5 89.1667L95 80.25L87.9505 72.4453L93.166 60.6244L104.5 57.8567L104.5 49.0417L93.2064 46.3462Z" stroke="black" stroke-width="1.5" stroke-linecap="round" stroke-linejoin="round"/>
</svg>
