<svg width="98" height="93" viewBox="0 0 98 93" fill="none" xmlns="http://www.w3.org/2000/svg">
<path d="M41.0387 41.1006L12.1652 68.5011C8.9759 71.5275 8.9759 76.4348 12.1652 79.4611C15.3544 82.4879 20.5253 82.4879 23.7146 79.4611L52.588 52.061" stroke="black" stroke-width="1.5" stroke-linecap="round" stroke-linejoin="round"/>
<path d="M70.2035 53.4727L86.0399 68.5011C89.2294 71.5274 89.2294 76.4347 86.0399 79.4611C82.8508 82.4879 77.6797 82.4879 74.4906 79.4611L49.1392 55.4036" stroke="black" stroke-width="1.5" stroke-linecap="round" stroke-linejoin="round"/>
<path d="M27.4917 22.8772L18.8297 25.6173L10.1676 11.9171L15.9423 6.43701L30.3791 14.6571L27.4917 22.8772ZM27.4917 22.8772L39.0485 33.8444" stroke="black" stroke-width="1.5" stroke-linecap="round" stroke-linejoin="round"/>
<path d="M41.0387 41.1006C37.5932 32.7577 38.2668 21.8109 45.3699 15.0703C52.4729 8.32964 65.5812 6.85017 72.7997 10.9602L60.3835 22.7428L59.2296 34.7981L71.9328 33.703L84.349 21.9204C88.6802 28.7705 87.1212 41.2103 80.0182 47.9508C72.9149 54.6914 61.3799 55.3308 52.5884 52.0606" stroke="black" stroke-width="1.5" stroke-linecap="round" stroke-linejoin="round"/>
</svg>
